<?xml version="1.0" encoding="utf-8"?>
<!-- Generator: Adobe Illustrator 21.1.0, SVG Export Plug-In . SVG Version: 6.00 Build 0)  -->
<svg version="1.1" id="Icons" xmlns="http://www.w3.org/2000/svg" xmlns:xlink="http://www.w3.org/1999/xlink" x="0px" y="0px"
     viewBox="0 0 192 175.6" style="enable-background:new 0 0 192 175.6;" xml:space="preserve">
<rect id="bg" y="0" style="fill:#E9EAEA;" width="192" height="150"/>
<rect id="frame" x="9.3" y="8.7" style="fill:none;stroke:#AAC3CF;stroke-width:6;stroke-miterlimit:10;" width="174" height="131.8"/>
<path id="tittle_as_shape" style="display:none;fill:#7C7F81;" d="M162,43.4C144.6,36.9,121.6,33,96,33s-48.6,3.9-66,10.4v6.5
    C47,43.2,70.5,39,96,39s49,4.2,66,10.9V43.4z"/>
<g id="star_1_">
    <polygon id="legright" style="fill:#CF7215;" points="129,166.3 115.4,165.4 108.2,175.6 85.1,136.6 111.4,136.6   "/>
    <polygon id="legrightshadow" style="fill:#AD5219;" points="89.2,143.4 100.5,162.5 103.2,151.2 88.6,142.1    "/>
    <polygon id="legleft" style="fill:#CF7215;" points="63,166.3 76.6,165.4 83.8,175.6 106.9,136.6 80.6,136.6   "/>
    <polygon id="star" style="fill:#F29111;" points="96,101.3 103.2,97.2 107.5,104.4 115.8,104.5 115.9,112.8 123,117 118.9,124.2 
        123,131.5 115.9,135.7 115.8,144 107.5,144.1 103.2,151.2 96,147.1 88.8,151.2 84.5,144.1 76.2,144 76.2,135.7 69,131.5 
        73.1,124.2 69,117 76.2,112.8 76.2,104.5 84.5,104.4 88.8,97.2    "/>
</g>
<line id="line4" style="fill:none;stroke:#7C7F81;stroke-width:6;stroke-miterlimit:10;" x1="162" y1="117" x2="132" y2="117"/>
<line id="line3" style="fill:none;stroke:#7C7F81;stroke-width:6;stroke-miterlimit:10;" x1="60" y1="117" x2="30" y2="117"/>
<line id="line2" style="fill:none;stroke:#7C7F81;stroke-width:6;stroke-miterlimit:10;" x1="45" y1="81" x2="147" y2="81"/>
<line id="line1" style="fill:none;stroke:#7C7F81;stroke-width:6;stroke-miterlimit:10;" x1="54" y1="60" x2="137.8" y2="60"/>
<path id="title_not_good" style="display:none;fill:none;stroke:#7C7F81;stroke-width:6;stroke-miterlimit:24;" d="M161.5,46.8
    c0,0-20.6-11-65.5-11c-47.7,0-65.6,11-65.6,11"/>
<g id="clippedtitle">
    <g>
        <defs>
            <rect id="SVGID_1_" x="30" y="31.8" width="131.7" height="18.5"/>
        </defs>
        <clipPath id="SVGID_2_">
            <use xlink:href="#SVGID_1_"  style="overflow:visible;"/>
        </clipPath>
        <path style="clip-path:url(#SVGID_2_);fill:none;stroke:#7C7F81;stroke-width:6;stroke-miterlimit:24;" d="M167,48.8
            c0,0-26.2-12.8-71-12.8c-47.7,0-71.7,13.7-71.7,13.7"/>
    </g>
</g>
</svg>
