<?xml version="1.0" encoding="utf-8"?>
<!-- Generator: Adobe Illustrator 22.0.1, SVG Export Plug-In . SVG Version: 6.00 Build 0)  -->
<svg version="1.1" id="Icons" xmlns="http://www.w3.org/2000/svg" xmlns:xlink="http://www.w3.org/1999/xlink" x="0px" y="0px"
     viewBox="0 0 192 138" style="enable-background:new 0 0 192 138;" xml:space="preserve">
<polygon id="base" style="fill:#CBCECE;" points="6,132 6,0 0,0 0,138 192,138 192,132 "/>
<rect id="txt1" x="15" style="fill:#939699;" width="51" height="6"/>
<rect id="txt2" x="15" y="12" style="fill:#939699;" width="42" height="6"/>
<rect id="ClipingPath" x="15" y="21" style="fill:none;" width="177" height="102"/>
<polygon style="fill:#942645;" points="321.3,88.4 293,102.5 266.6,65.7 240.5,91.7 192,61.9 143.5,91.7 117.4,65.7 91,102.5 
    62.8,88.4 15,104.4 15,123 192,123 369,123 369,104.4 "/>
<polygon style="fill:#00758F;" points="321,45.3 294,58.7 267,37.3 240,50.7 192,21.2 144,50.7 117,37.3 90,58.7 63,45.3 15,74.8 
    15,98.7 63.2,82.5 89,95.3 116.6,57 144.5,84.6 192,55.5 239.5,84.6 267.4,57 295,95.3 320.8,82.5 369,98.7 369,74.8 "/>
<polygon style="fill:#FFFFFF;" points="320.8,82.5 295,95.3 267.4,57 239.5,84.6 192,55.5 144.5,84.6 116.6,57 89,95.3 63.2,82.5 
    15,98.7 15,104.4 62.8,88.4 91,102.5 117.4,65.7 143.5,91.7 192,61.9 240.5,91.7 266.6,65.7 293,102.5 321.3,88.4 369,104.4 
    369,98.7 "/>
</svg>
