<?xml version="1.0" encoding="utf-8"?>
<!-- Generator: Adobe Illustrator 22.1.0, SVG Export Plug-In . SVG Version: 6.00 Build 0)  -->
<svg version="1.1" id="Layer_1" xmlns="http://www.w3.org/2000/svg" xmlns:xlink="http://www.w3.org/1999/xlink" x="0px" y="0px"
	 viewBox="0 0 167.7 51" style="enable-background:new 0 0 167.7 51;" xml:space="preserve">
<g>
	<path style="fill:#0075BF;" d="M129.9,45.6c-14.2,1.3-29.1-0.8-31.1-11.9c-1-5.5,1.5-11.3,4.8-14.9v-1.9c-6,5.2-9.2,11.9-7.3,19.7
		c2.4,10,15.1,15.7,34.5,13.8c7.7-0.7,17.7-3.2,24.7-7.1v-5.5C149.1,41.7,138.6,44.8,129.9,45.6z M167.3,16.8
		c-3.4-16.5-35.4-17.5-56-5v1.4c20.6-10.6,49.8-10.5,52.5,4.7c0.9,5-1.9,10.3-7,13.3v3.9C162.9,32.8,169.2,25.6,167.3,16.8z"/>
	<path style="fill:#0075BF;" d="M154.3,14.4h-3.7V31c0,1.9,0.9,3.6,3.7,3.9V14.4z"/>
	<path style="fill:#0075BF;" d="M109.9,20.5h-3.7l0,10.9c0,2,0.9,3.6,3.7,3.9V20.5z"/>
	<rect x="106.1" y="14.9" style="fill:#0075BF;" width="3.7" height="3.5"/>
	<path style="fill:#0075BF;" d="M132.2,35c-3,0-4.3-2.1-4.3-4.2V16.5h3.7v4h2.8v3h-2.8v7.2c0,0.8,0.4,1.3,1.3,1.3h1.5V35H132.2"/>
	<path style="fill:#0075BF;" d="M139,28.9c0,1.9,1.2,3.3,3.3,3.3c1.6,0,2.4-0.5,3.4-1.4L148,33c-1.5,1.4-3,2.3-5.7,2.3
		c-3.5,0-6.9-1.9-6.9-7.6c0-4.8,3-7.5,6.8-7.5c3.9,0,6.2,3.2,6.2,7.4v1.3H139 M142,23.3c-1.3,0-2.2,0.7-2.7,1.5
		c-0.2,0.5-0.3,0.9-0.4,1.6h5.7C144.7,24.8,143.9,23.3,142,23.3z"/>
	<path style="fill:#0075BF;" d="M119.9,23.4c1.1,0,1.5,0.5,1.5,1.4v10.2h3.7V24.8c0-2.1-1.1-4.4-4.4-4.4l-7.6,0v14.6h3.7V23.4H119.9
		z"/>
	<g>
		<path style="fill:#0075BF;" d="M158.3,17.4c-0.8,0-1.5-0.7-1.5-1.5c0-0.8,0.7-1.5,1.5-1.5c0.8,0,1.5,0.7,1.5,1.5
			C159.8,16.7,159.1,17.4,158.3,17.4z M158.3,14.6c-0.7,0-1.2,0.6-1.2,1.2c0,0.7,0.5,1.2,1.2,1.2c0.7,0,1.2-0.6,1.2-1.2
			C159.6,15.2,159,14.6,158.3,14.6z M159,16.8h-0.3c0,0,0,0-0.1,0l-0.4-0.6c0,0,0,0-0.1,0c0,0-0.1,0-0.1,0c0,0-0.1,0-0.1,0v0.6
			c0,0,0,0.1-0.1,0.1h-0.3c0,0-0.1,0-0.1-0.1v-1.6c0-0.1,0-0.1,0.1-0.1c0.1,0,0.3,0,0.5,0c0.5,0,0.7,0.1,0.7,0.6v0
			c0,0.3-0.1,0.4-0.3,0.5l0.4,0.7C159,16.7,159,16.7,159,16.8C159,16.7,159,16.8,159,16.8z M158.6,15.5c0-0.2-0.1-0.2-0.3-0.2
			c0,0-0.1,0-0.2,0c0,0-0.1,0-0.1,0v0.5c0,0,0.2,0,0.2,0C158.5,15.8,158.6,15.7,158.6,15.5L158.6,15.5z"/>
	</g>
</g>
<rect x="-29.5" style="fill:none;" width="101.3" height="76.7"/>
<g>
	<path d="M2,30H0.6v-6.1H2V30z"/>
	<path d="M4.3,26.3L4.3,26.3c0.3-0.4,0.7-0.6,1.3-0.6c0.4,0,1.2,0.3,1.4,0.9c0.1,0.3,0.1,0.5,0.1,0.7V30H5.8v-2.6c0-0.5-0.1-1-0.8-1
		c-0.4,0-0.7,0.4-0.8,1V30H3v-4.3h1.3V26.3z"/>
	<path d="M10.6,27c0-0.5,0.2-0.9,0.6-1.1c0.3-0.2,0.8-0.3,1.3-0.3c0.9,0,1.8,0.3,1.8,1.6v2.3c0,0.2,0,0.3,0.1,0.5h-1.1
		c0-0.2,0-0.4,0-0.6h0c-0.3,0.5-0.7,0.7-1.3,0.7c-0.8,0-1.4-0.5-1.4-1.3c0-0.3,0.1-1,0.9-1.4c0.5-0.2,1.2-0.2,1.7-0.2v-0.4
		c0-0.2-0.1-0.5-0.6-0.5c-0.4,0-0.6,0.4-0.6,0.6H10.6z M11.6,28.7c0,0.4,0.3,0.6,0.6,0.6c0.7,0,0.7-0.8,0.7-1.3
		C12.5,28,11.6,28,11.6,28.7z"/>
	<path d="M17.5,26.9c0-0.3-0.3-0.4-0.6-0.4c-0.3,0-0.5,0.1-0.5,0.4c0,0.7,2.4,0.3,2.4,1.9c0,0.9-1.1,1.4-1.9,1.4
		c-1,0-1.9-0.4-1.9-1.4h1.2c0,0.3,0.3,0.5,0.7,0.5c0.3,0,0.6-0.1,0.6-0.5c0-0.3-0.6-0.5-0.9-0.5c-0.8-0.2-1.6-0.4-1.6-1.4
		c0-0.9,1.1-1.3,1.8-1.3c0.9,0,1.7,0.3,1.7,1.3H17.5z"/>
	<path d="M21.7,26.9c0-0.3-0.3-0.4-0.6-0.4c-0.3,0-0.5,0.1-0.5,0.4c0,0.7,2.4,0.3,2.4,1.9c0,0.9-1.1,1.4-1.9,1.4
		c-1,0-1.9-0.4-1.9-1.4h1.2c0,0.3,0.3,0.5,0.7,0.5c0.3,0,0.6-0.1,0.6-0.5c0-0.3-0.6-0.5-0.9-0.5c-0.8-0.2-1.6-0.4-1.6-1.4
		c0-0.9,1.1-1.3,1.8-1.3c0.9,0,1.7,0.3,1.7,1.3H21.7z"/>
	<path d="M25.9,30.2c-1.4,0-2.2-0.9-2.2-2.3s0.8-2.3,2.2-2.3c1.4,0,2.2,0.9,2.2,2.3S27.3,30.2,25.9,30.2z M25.9,29.3
		c0.8,0,0.9-0.7,0.9-1.4c0-0.7-0.1-1.4-0.9-1.4c-0.8,0-0.9,0.7-0.9,1.4C25,28.6,25.1,29.3,25.9,29.3z"/>
	<path d="M31.3,27.3c0-0.3-0.2-0.8-0.6-0.8c-0.5,0-0.6,1-0.6,1.4c0,0.4,0,1.5,0.6,1.5c0.5,0,0.6-0.5,0.6-0.8h1.2
		c0,1.1-0.7,1.7-1.9,1.7c-1.3,0-1.9-1.1-1.9-2.3s0.6-2.3,1.9-2.3c1.1,0,1.9,0.6,1.9,1.6H31.3z"/>
	<path d="M34.6,23.9V25h-1.4v-1.1H34.6z M34.5,25.8V30h-1.3v-4.3H34.5z"/>
	<path d="M35.6,27c0-0.5,0.2-0.9,0.6-1.1c0.3-0.2,0.8-0.3,1.3-0.3c0.9,0,1.8,0.3,1.8,1.6v2.3c0,0.2,0,0.3,0.1,0.5h-1.1
		c0-0.2,0-0.4,0-0.6h0c-0.3,0.5-0.7,0.7-1.3,0.7c-0.8,0-1.4-0.5-1.4-1.3c0-0.3,0.1-1,0.9-1.4c0.5-0.2,1.2-0.2,1.7-0.2v-0.4
		c0-0.2-0.1-0.5-0.6-0.5c-0.4,0-0.6,0.4-0.6,0.6H35.6z M36.7,28.7c0,0.4,0.3,0.6,0.6,0.6c0.7,0,0.7-0.8,0.7-1.3
		C37.6,28,36.7,28,36.7,28.7z"/>
	<path d="M40.7,25.8v-0.8l1.3-0.5v1.3h1v0.9h-1v2c0,0.6,0.1,0.7,0.5,0.7c0.1,0,0.3,0,0.4,0V30c-0.1,0.1-0.8,0.1-1,0.1
		c-1,0-1.2-0.5-1.2-1.4v-2.1h-0.9v-0.9H40.7z"/>
	<path d="M45,23.9V25h-1.4v-1.1H45z M44.9,25.8V30h-1.3v-4.3H44.9z"/>
	<path d="M48.1,30.2c-1.4,0-2.2-0.9-2.2-2.3s0.8-2.3,2.2-2.3s2.2,0.9,2.2,2.3S49.5,30.2,48.1,30.2z M48.1,29.3
		c0.8,0,0.9-0.7,0.9-1.4c0-0.7-0.1-1.4-0.9-1.4s-0.9,0.7-0.9,1.4C47.2,28.6,47.3,29.3,48.1,29.3z"/>
	<path d="M52.5,26.3L52.5,26.3c0.3-0.4,0.7-0.6,1.3-0.6c0.4,0,1.2,0.3,1.4,0.9c0.1,0.3,0.1,0.5,0.1,0.7V30H54v-2.6
		c0-0.5-0.1-1-0.8-1c-0.4,0-0.7,0.4-0.8,1V30h-1.3v-4.3h1.3V26.3z"/>
	<path d="M63.6,29L63.6,29l0.8-3.2h1.2L64.3,30h-1.4L62,26.9h0L61.1,30h-1.4l-1.4-4.3h1.3l0.8,3.2h0l0.9-3.2h1.4L63.6,29z"/>
	<path d="M67.7,23.9V25h-1.4v-1.1H67.7z M67.6,25.8V30h-1.3v-4.3H67.6z"/>
	<path d="M69,25.8v-0.8l1.3-0.5v1.3h1v0.9h-1v2c0,0.6,0.1,0.7,0.5,0.7c0.1,0,0.3,0,0.4,0V30c-0.1,0.1-0.8,0.1-1,0.1
		c-1,0-1.2-0.5-1.2-1.4v-2.1h-0.9v-0.9H69z"/>
	<path d="M72,30v-6.1h1.3v2.4l0,0c0.3-0.4,0.7-0.6,1.3-0.6c0.4,0,1.2,0.3,1.4,0.9c0.1,0.3,0.1,0.5,0.1,0.7V30h-1.3v-2.6
		c0-0.5-0.1-1-0.8-1c-0.4,0-0.7,0.4-0.8,1V30H72z"/>
</g>
</svg>
