<svg version="1.1" id="introImage" xmlns="http://www.w3.org/2000/svg" xmlns:xlink="http://www.w3.org/1999/xlink" x="0px" y="0px"
	 viewBox="0 0 153.4 170" style="enable-background:new 0 0 153.4 170;" xml:space="preserve">
<g>
	<rect x="-67" y="-59" style="fill:none;" width="288" height="288"/>
	<g>
		<g>
			<path style="fill:#4F6C7D;" d="M3,128.5c5.3,12.9,16.8,22.3,30.6,25.6c1.7,9.4,10.5,16,20,16c2.1,0,4.3-0.3,6.4-1
				c8.2-2.6,13.8-9.9,13.9-18l0-132c0-8.2-6.2-15.6-14-18C49.4-2.4,36.4,3.2,33.7,15.4C21.9,20,13,31.2,13.5,45
				c-9,7.8-13,17.6-13.2,27c0.1,1.9,0.3,4.1,0.4,6c0.8,5.1,2.6,9.9,5.3,14.1c-0.8,1.2-1.5,2.5-2.1,3.8c-0.4,1.1-1.5,4.1-2.3,6.1
				c-1.7,5.8-2.1,11.9-1.1,17.9c0.3,1,1.3,4.9,1.5,6.1C2.4,126.8,2.7,127.7,3,128.5z"/>
			<path style="fill:#4F6C7D;" d="M151.9,126c0.2-1.1,1.2-5,1.5-6.1c1-6,0.7-12.1-1.1-17.9c-0.8-2-1.9-4.9-2.3-6.1
				c-0.6-1.3-1.3-2.6-2.1-3.8c2.7-4.2,4.5-9.1,5.3-14.1c0.1-2,0.3-4.1,0.4-6c-0.2-9.5-4.2-19.3-13.2-27c0.5-13.8-8.3-24.9-20.2-29.5
				C117.6,3.2,104.6-2.4,94,1c-7.8,2.4-14,9.8-14,18l0,132c0.1,8.2,5.7,15.4,13.9,18c2.1,0.7,4.3,1,6.4,1c9.5,0.1,18.3-6.6,20-16
				c13.8-3.3,25.3-12.6,30.6-25.6C151.3,127.7,151.6,126.8,151.9,126z"/>
		</g>
		<g>
			<path id="introImageCog" style="fill:#F29111;" d="M61.3,123.5l0.5-7.9c-0.9-0.7-1.7-1.4-2.5-2.2c-0.8-0.8-1.5-1.6-2.1-2.5l-7.9,0.3
				c-1.2-2.2-2.2-4.5-2.8-6.9l5.9-5.2c-0.3-2.2-0.3-4.4,0-6.6l-5.8-5.3c0.7-2.4,1.7-4.7,2.9-6.9l7.9,0.5c0.7-0.9,1.4-1.7,2.2-2.5
				c0.8-0.8,1.6-1.5,2.5-2.1l-0.3-7.9c2.2-1.2,4.5-2.2,6.9-2.8l5.2,5.9c2.2-0.3,4.4-0.3,6.6,0.1l5.3-5.8c2.4,0.7,4.7,1.7,6.9,2.9
				l-0.5,7.9c0.9,0.7,1.7,1.4,2.5,2.2c0.8,0.8,1.5,1.6,2.1,2.5l7.9-0.3c1.2,2.2,2.2,4.5,2.8,6.9l-5.9,5.2c0.3,2.2,0.3,4.4,0,6.6
				l5.8,5.3c-0.7,2.4-1.7,4.7-2.9,6.9l-7.9-0.5c-0.7,0.9-1.4,1.7-2.2,2.5c-0.8,0.8-1.6,1.5-2.5,2.1l0.3,7.9
				c-2.2,1.2-4.5,2.2-6.9,2.8l-5.2-5.9c-2.2,0.3-4.4,0.3-6.6,0l-5.3,5.8C65.8,125.7,63.5,124.7,61.3,123.5z"/>
			<circle style="fill:#4F6C7D;" cx="77" cy="96" r="11"/>
		</g>
		<g>
			<path style="fill:#BDE6EE;" d="M139.1,96c-1.3-4.3-5.3-7.5-10.1-7.5c-5.8,0-10.5,4.7-10.5,10.5s4.7,10.5,10.5,10.5
				c4.7,0,8.8-3.2,10.1-7.5h13.3c-0.6-2-1.4-4-2.3-6H139.1z M129,103.5c-2.5,0-4.5-2-4.5-4.5s2-4.5,4.5-4.5s4.5,2,4.5,4.5
				S131.5,103.5,129,103.5z"/>
			<path style="fill:#BDE6EE;" d="M109,129.8c-1.5-0.8-3.2-1.3-5-1.3c-5.8,0-10.5,4.7-10.5,10.5s4.7,10.5,10.5,10.5
				s10.5-4.7,10.5-10.5c0-1.8-0.5-3.5-1.3-5l8-8h30.7c0.7-2,1.2-4,1.5-6h-34.7L109,129.8z M104,143.5c-2.5,0-4.5-2-4.5-4.5
				s2-4.5,4.5-4.5s4.5,2,4.5,4.5S106.5,143.5,104,143.5z"/>
			<path style="fill:#BDE6EE;" d="M110,57.8V42.1c4.3-1.3,7.5-5.3,7.5-10.1c0-5.8-4.7-10.5-10.5-10.5S96.5,26.2,96.5,32
				c0,4.7,3.2,8.8,7.5,10.1v18.2L121.8,78h31.5c0.3-2,0.4-4,0.4-6h-29.4L110,57.8z M102.5,32c0-2.5,2-4.5,4.5-4.5s4.5,2,4.5,4.5
				s-2,4.5-4.5,4.5S102.5,34.5,102.5,32z"/>
			<path style="fill:#BDE6EE;" d="M50,60.2V42.1c4.3-1.3,7.5-5.3,7.5-10.1c0-5.8-4.7-10.5-10.5-10.5S36.5,26.2,36.5,32
				c0,4.7,3.2,8.8,7.5,10.1v15.7L29.8,72H0.3c0,2,0.1,4,0.4,6h31.5L50,60.2z M42.5,32c0-2.5,2-4.5,4.5-4.5s4.5,2,4.5,4.5
				s-2,4.5-4.5,4.5S42.5,34.5,42.5,32z"/>
			<path style="fill:#BDE6EE;" d="M40.8,134c-0.8,1.5-1.3,3.2-1.3,5c0,5.8,4.7,10.5,10.5,10.5s10.5-4.7,10.5-10.5
				s-4.7-10.5-10.5-10.5c-1.8,0-3.5,0.5-5,1.3l-9.8-9.8H0.6c0.3,2,0.9,4,1.5,6h30.7L40.8,134z M50,134.5c2.5,0,4.5,2,4.5,4.5
				s-2,4.5-4.5,4.5s-4.5-2-4.5-4.5S47.5,134.5,50,134.5z"/>
			<path style="fill:#BDE6EE;" d="M25,109.5c5.8,0,10.5-4.7,10.5-10.5S30.8,88.5,25,88.5c-4.7,0-8.8,3.2-10.1,7.5h-11
				c-0.9,2-1.7,4-2.3,6h13.3C16.2,106.3,20.3,109.5,25,109.5z M25,94.5c2.5,0,4.5,2,4.5,4.5s-2,4.5-4.5,4.5s-4.5-2-4.5-4.5
				S22.5,94.5,25,94.5z"/>
		</g>
	</g>
</g>
</svg>
