<?xml version="1.0" encoding="utf-8"?>
<!-- Generator: Adobe Illustrator 21.1.0, SVG Export Plug-In . SVG Version: 6.00 Build 0)  -->
<svg version="1.1" id="icon" xmlns="http://www.w3.org/2000/svg" xmlns:xlink="http://www.w3.org/1999/xlink" x="0px" y="0px"
     viewBox="0 0 233.5 128.1" style="enable-background:new 0 0 233.5 128.1;" xml:space="preserve">
<style type="text/css">
    .main_0{clip-path:url(#SVGID_2_);fill:#F29111;}
    .main_1{display:none;opacity:0;}
    .main_2{display:inline;}
    .main_3{clip-path:url(#SVGID_4_);}
    .main_4{fill:#AAC3CF;}
    .main_5{fill:#BDE6EE;}
    .main_6{fill:#8AADBF;}
    .main_7{fill:#DAC7B3;}
    .main_8{fill:#CDB498;}
    .main_9{fill:#B29D86;}
    .main_10{fill:#BDAE9D;}
    .main_11{fill:#324B5C;}
    .main_12{fill:#592439;}
    .main_13{fill:#942645;}
    .main_14{fill:#7C7F81;}
    .main_15{fill:#939699;}
    .main_16{fill:#343537;}
    .main_17{fill:#4E5052;}
    .main_18{fill:#4F6C7D;}
    .main_19{fill:#CBCECE;}
    .main_20{fill:#F80000;}
    .main_21{fill:#FFFFFF;}
    .main_22{fill:#283C4A;}
</style>
<g>
    <g>
        <defs>
            <rect id="SVGID_1_" x="136" y="7.6" width="97.1" height="112.7"/>
        </defs>
        <clipPath id="SVGID_2_">
            <use xlink:href="#SVGID_1_"  style="overflow:visible;"/>
        </clipPath>
        <path id="arrow" class="main_0" d="M204.7,26.2c-1.7,0-3,1.3-3,3l0,0v3c0,1.7,1.3,3,3,3h13.1l-33,33L171,54.4l-61.7,61.8H122
            l49.1-49.1l13.8,13.8l39.3-39.3v13.1c0,1.7,1.3,3,3,3h3c1.7,0,3-1.3,3-3V26.2H204.7z"/>
    </g>
</g>
<g class="main_1">
    <g class="main_2">
        <defs>
            <rect id="SVGID_3_" x="78.2" y="20.9" width="100.7" height="101.3"/>
        </defs>
        <clipPath id="SVGID_4_">
            <use xlink:href="#SVGID_3_"  style="overflow:visible;"/>
        </clipPath>
        <g class="main_3">
            <g id="BODY">
                <path class="main_4" d="M127.5,128.1V63.9h-9.6v8.2c0,1.9-1.1,3.6-2.8,4.4l-21.2,10c-4.1,1.9-6.9,5.8-7.5,10.3l-4.2,31.3H127.5z"/>
                <path class="main_5" d="M172.8,128.1l-4.2-31.3c-0.6-4.5-3.4-8.4-7.5-10.3l-21.2-10c-1.7-0.8-2.8-2.5-2.8-4.4v-8.2h-9.6v64.3
                    L172.8,128.1L172.8,128.1z"/>
                <polygon class="main_4" points="154.8,115.3 156.4,128.1 151.6,128.1                "/>
                <polygon class="main_6" points="100.2,115.3 98.6,128.1 103.4,128.1                 "/>
            </g>
            <g id="HEAD">
                <path d="M113.4,51.3l-0.4,0.9h29l-0.4-0.9c0,0,1.4-5.8,1.4-10.5c0-5.8-5.2-11.7-12-12.4l-2.4-3.1C111.9,26.1,112,39.7,112,39.7
                    v1.7C112.2,44.7,112.7,48,113.4,51.3z"/>
                <path class="main_7" d="M139.9,76.4c-1.7-0.8-2.8-2.5-2.8-4.4v-8.2h-9.6v16.6C136.3,80.5,139.8,76.5,139.9,76.4L139.9,76.4z"/>
                <path class="main_8" d="M117.9,63.9v8.2c0,1.9-1.1,3.6-2.8,4.4l0,0c0.1,0.1,3.6,4.1,12.4,4.1V63.9H117.9z"/>
                <path class="main_9" d="M117.9,72.1c0,1.9-1.1,3.6-2.8,4.4l0,0c0.1,0.1,1.9,2.1,6.1,3.3c2.2-0.3,4.4-1.1,6.4-2.2V63.9h-9.7V72.1z"
                    />
                <path class="main_10" d="M136.5,65.5l0.5-1.7h-9.5v13.6l0,0c0.3-0.2,0.6-0.4,1-0.6C131.7,74.7,134.6,71.2,136.5,65.5z"/>
                <path class="main_7" d="M140.4,49.4h-0.7V45c0,0,0.1-4.6-1.9-5.6c-0.5-0.2-1.1-0.4-1.6-0.3c-2.1,0-4.3,1.8-8.7,1.7
                    c-4.5,0.1-6.6-1.7-8.7-1.7c-0.6,0-1.1,0.1-1.6,0.3c-2,1-1.9,5.6-1.9,5.6v15.7c1.6,11.8,10.6,12.4,12,12.4h0.4
                    c1.4,0,10.4-0.5,12-12.4v-0.1c1.6,0,2.9-1.2,3.1-2.8l0.7-4.8c0.3-1.8-1-3.4-2.7-3.6C140.7,49.4,140.6,49.4,140.4,49.4z"/>
                <path class="main_8" d="M114.7,49.4h2.7v11.2h-2c-1.6,0-3-1.2-3.2-2.8l-0.7-4.8c-0.3-1.8,1-3.4,2.7-3.6
                    C114.4,49.4,114.6,49.4,114.7,49.4z"/>
                <path class="main_8" d="M127.5,63.3c0.6-1.1,0.6-2.1,0.4-2.4c-0.8-1.1-2.1-0.3-2.5-2c-0.1-0.6,1-2.7,1.3-4.3
                    c0.3-1.2,0.4-2.4,0.2-3.6c-0.5-2.3-2.5-3.7-4.2-4c-3.4-0.7-6.2,0.5-7.4,1.9v0.5h-0.6c-1.8,0-3.2,1.4-3.2,3.2c0,0.2,0,0.3,0,0.5
                    l0.7,4.8c0.2,1.5,1.5,2.7,3.1,2.8v0.1c1.6,11.8,10.6,12.4,12,12.4h0.4c0.4-1.6,0.4-3.2-0.1-4.7c0-0.1-0.1-0.3-0.1-0.4
                    c-0.6-1.8,0.4-2.3,0.6-2.7C128.9,63.9,126.6,65,127.5,63.3z"/>
                <path class="main_11" d="M127,69.4c0,0.1,0,0.2,0,0.2V69.4z"/>
            </g>
        </g>
    </g>
</g>
<g>
    <path class="main_12" d="M2.6,68.4h6.2V70H4.7v2.4h3.9V74H4.7v4.1H2.6V68.4z"/>
    <path class="main_12" d="M10.8,68.4h3.7c1.1,0,2.2,0,2.9,0.7c0.6,0.5,0.8,1.2,0.8,1.9c0,1.8-1.6,2.2-2,2.4c1.5,0.1,1.6,1,1.7,2.2
        c0.1,1.1,0.2,1.6,0.3,1.9c0.1,0.4,0.2,0.5,0.3,0.7h-2.3c-0.1-0.5-0.4-3-0.5-3.4c-0.2-0.5-0.7-0.5-1-0.5h-1.8v3.9h-2.1
        C10.8,78.2,10.8,68.4,10.8,68.4z M12.9,72.7h1.7c0.2,0,0.7,0,1.1-0.3c0.1-0.1,0.5-0.4,0.5-1.1s-0.3-1-0.5-1.1
        C15.3,70,14.9,70,14.3,70h-1.4C12.9,70,12.9,72.7,12.9,72.7z"/>
    <path class="main_12" d="M20.9,68.4h6.5V70H23v2.3h4.1v1.6H23v2.6h4.5v1.6h-6.6V68.4z"/>
    <path class="main_12" d="M30,68.4h6.5V70H32v2.3h4.1v1.6H32v2.6h4.5v1.6H30V68.4z"/>
    <path class="main_12" d="M39,68.5h3.2c0.5,0,2.2,0,3.3,0.9c1.2,0.9,1.6,2.4,1.6,3.8c0,3-1.6,4.5-3.4,4.9c-0.4,0.1-0.8,0.1-1.7,0.1h-3
        C39,78.2,39,68.5,39,68.5z M41.1,76.5c0.2,0,0.6,0,0.8,0c0.9,0,1.6-0.1,2.2-0.7c0.8-0.8,0.9-2.3,0.9-2.7c0-1.4-0.5-2.6-1.8-3
        c-0.4-0.1-1-0.2-2.2-0.1L41.1,76.5L41.1,76.5z"/>
    <path class="main_12" d="M53.9,68.2c1,0,2.4,0.2,3.4,1.3c1,1.2,1.2,2.7,1.2,3.6c0,1.4-0.4,2.9-1.2,3.8c-1.1,1.2-2.6,1.4-3.4,1.4
        c-1.3,0-2.5-0.4-3.4-1.3c-1.1-1.1-1.2-2.7-1.2-3.6C49.2,70.8,50.4,68.2,53.9,68.2z M52.1,76c0.3,0.4,0.8,0.8,1.8,0.8
        c0.8,0,1.4-0.3,1.8-0.9c0.3-0.5,0.7-1.2,0.7-2.8c0-0.5,0-1.1-0.2-1.7c-0.4-1.2-1.2-1.7-2.2-1.7c-0.8,0-1.4,0.3-1.8,0.8
        c-0.5,0.7-0.7,1.7-0.7,2.8C51.4,74.3,51.5,75.3,52.1,76z"/>
    <path class="main_12" d="M60.8,68.4h3.4l2,7l2.2-7h3.3v9.7h-2.1v-8.3L67,78.1h-1.7l-2.6-8.3v8.3h-1.9C60.8,78.1,60.8,68.4,60.8,68.4z"
        />
    <path class="main_12" d="M79.3,70h-2.9v-1.6h7.8V70h-2.9v8.1h-2.1L79.3,70L79.3,70z"/>
    <path class="main_12" d="M90,68.2c1,0,2.4,0.2,3.4,1.3c1,1.2,1.2,2.7,1.2,3.6c0,1.4-0.4,2.9-1.2,3.8c-1.1,1.2-2.6,1.4-3.4,1.4
        c-1.3,0-2.5-0.4-3.4-1.3c-1.1-1.1-1.2-2.7-1.2-3.6C85.3,70.8,86.5,68.2,90,68.2z M88.2,76c0.3,0.4,0.8,0.8,1.8,0.8
        c0.8,0,1.4-0.3,1.8-0.9c0.3-0.5,0.7-1.2,0.7-2.8c0-0.5,0-1.1-0.2-1.7c-0.4-1.2-1.2-1.7-2.2-1.7c-0.8,0-1.4,0.3-1.8,0.8
        c-0.5,0.7-0.7,1.7-0.7,2.8C87.5,74.3,87.6,75.3,88.2,76z"/>
</g>
<g>
    <path class="main_13" d="M8,90H0v-4.4h21.7V90h-8v22.3H8V90z"/>
    <path class="main_13" d="M24.4,85.5h10.2c3,0,6,0,8.1,1.8c1.7,1.4,2.3,3.4,2.3,5.1c0,5-4.3,6.2-5.6,6.5c4,0.4,4.3,2.7,4.8,6.1
        c0.4,3.1,0.6,4.4,0.8,5.2c0.3,1.2,0.5,1.5,0.8,1.9h-6.3c-0.3-1.5-1.1-8.3-1.4-9.3c-0.5-1.5-1.9-1.5-2.9-1.5h-5v10.8h-5.8
        C24.4,112.1,24.4,85.5,24.4,85.5z M30,97.2h4.6c0.7,0,2,0,2.9-0.7c0.4-0.3,1.5-1.2,1.5-3.1c0-1.8-0.9-2.7-1.4-3
        c-0.9-0.6-2-0.6-3.8-0.6H30V97.2z"/>
    <path class="main_13" d="M63.5,85.5l9.3,26.8H67l-1.9-5.8H54.5l-2,5.8H47l9.7-26.8H63.5z M63.6,102.2l-3.7-11.4l-4,11.4H63.6z"/>
    <path class="main_13" d="M76.2,85.5h8.3l10,21.1V85.5h5.3v26.8H92L81.6,90.1v22.2h-5.4V85.5z"/>
    <path class="main_13" d="M109.5,103.7c0,1.3-0.1,5.1,4.8,5.1c3.1,0,5.1-1.5,5.1-3.7c0-2.4-1.7-2.8-5.1-3.6c-6.4-1.6-9.8-3.5-9.8-8.1
        c0-4.4,3.1-8.3,10.6-8.3c2.8,0,6.1,0.6,8.1,3.1c1.5,1.9,1.5,4.1,1.5,5h-5.5c-0.1-0.9-0.4-4.1-4.3-4.1c-2.7,0-4.4,1.4-4.4,3.6
        c0,2.5,2,2.9,5.8,3.9c4.6,1.1,9.2,2.4,9.2,7.6c0,4.8-4,8.7-11.4,8.7c-10.2,0-10.3-6.6-10.4-9.2H109.5z"/>
    <path class="main_13" d="M129.6,85.6h17.2v4.3h-11.5v6.6H146v4.4h-10.7v11.4h-5.7V85.6z"/>
    <path class="main_13" d="M162,85c2.8,0,6.8,0.7,9.4,3.6c2.8,3.3,3.4,7.4,3.4,10.1c0,3.9-1.2,8-3.4,10.5c-3,3.3-7.3,3.8-9.5,3.8
        c-3.5,0-7-1.1-9.5-3.7c-2.9-3.1-3.3-7.5-3.3-10C149.1,92.2,152.4,85,162,85z M157.1,106.6c0.8,1.1,2.2,2.1,4.8,2.1
        c2.3,0,3.9-0.8,5-2.5c0.9-1.3,1.8-3.4,1.8-7.7c0-1.3-0.1-3.1-0.7-4.8c-1.1-3.3-3.4-4.7-6.1-4.7c-2.1,0-3.8,0.9-4.9,2.3
        c-1.5,1.9-2,4.7-2,7.8C155.1,101.7,155.5,104.5,157.1,106.6z"/>
    <path class="main_13" d="M178.6,85.5h10.2c3,0,6,0,8.1,1.8c1.7,1.4,2.3,3.4,2.3,5.1c0,5-4.3,6.2-5.6,6.5c4,0.4,4.3,2.7,4.8,6.1
        c0.4,3.1,0.6,4.4,0.8,5.2c0.3,1.2,0.5,1.5,0.8,1.9h-6.3c-0.3-1.5-1.1-8.3-1.4-9.3c-0.5-1.5-1.9-1.5-2.9-1.5h-5v10.8h-5.8
        L178.6,85.5L178.6,85.5z M184.3,97.2h4.6c0.7,0,2,0,2.9-0.7c0.4-0.3,1.5-1.2,1.5-3.1c0-1.8-0.9-2.7-1.4-3c-0.9-0.6-2-0.6-3.8-0.6
        h-3.8V97.2z"/>
    <path class="main_13" d="M203.3,85.5h9.4l5.7,19.5l6.1-19.5h9.1v26.8h-5.7v-23l-7.3,22.9h-4.7l-7.1-22.9v22.9h-5.4V85.5H203.3z"/>
</g>
<rect id="tableline" y="116.2" class="main_6" width="233.5" height="6"/>
<g>
    <polygon class="main_14" points="122.4,112.2 115,112.2 115,53.6 126.1,53.6 126.1,69.1  "/>
    <polygon class="main_15" points="129.8,112.2 137.2,112.2 137.2,53.6 126.1,53.6 126.1,69.1  "/>
    <path class="main_16" d="M122.4,112.2h-5.6l-5.1,3.9c-0.3,0.2-0.5,0.6-0.5,1v1.2h4.9l6.2-1.9L122.4,112.2L122.4,112.2z"/>
    <path class="main_16" d="M129.8,112.2h7.4l6.6,2.2c0.5,0.2,0.8,0.6,0.8,1.2v1h-14.8V112.2z"/>
    <path class="main_8" d="M129.8,17.9v-3.1h-7.4v3.1c0,0.4-0.1,0.8-0.4,1.2l4.1,1.2l4.1-1.2C129.9,18.8,129.8,18.4,129.8,17.9z"/>
    <path class="main_9" d="M122.4,14.8v3.1c0,0.7-0.4,1.4-1.1,1.7l0,0c0.6,0.6,1.5,1,2.3,1.2c0.9-0.1,1.7-0.4,2.5-0.8l0,0
        c0.1-0.1,0.2-0.1,0.4-0.2c1.5-1.1,2.6-2.6,3.1-4.4l0.2-0.6L122.4,14.8z"/>
    <path d="M120.6,10l-0.2,0.4h11.1l-0.2-0.4c0.3-1.3,0.5-2.7,0.5-4c0-2.2-2-4.5-4.6-4.7L126.5,0c-6.4,0.3-6.4,5.5-6.4,5.5v0.6
        C120.2,7.4,120.4,8.7,120.6,10z"/>
    <path class="main_8" d="M131,9.2h-0.3V7.6c0,0,0.1-1.8-0.7-2.1c-0.2-0.1-0.4-0.1-0.6-0.1c-0.8,0-1.6,0.7-3.3,0.6s-2.5-0.7-3.3-0.6
        c-0.2,0-0.4,0-0.6,0.1c-0.8,0.4-0.7,2.1-0.7,2.1v1.7h-0.2c-0.7,0-1.2,0.5-1.2,1.2c0,0.1,0,0.1,0,0.2l0.3,1.8
        c0.1,0.6,0.6,1.1,1.2,1.1l0,0c0.6,4.5,4.1,4.7,4.6,4.7h0.2c0.5,0,4-0.2,4.6-4.7l0,0c0.6,0,1.1-0.4,1.2-1.1l0.3-1.8
        c0.1-0.7-0.4-1.3-1-1.4C131.1,9.3,131.1,9.2,131,9.2z"/>
    <path class="main_8" d="M143.9,59.2h-3.7l-1.2,2.5v3.7h0.1c0.6,0,1.2-0.5,1.2-1.1l0.2-1.8l0.3,3.6l-0.9,0.9c-0.2,0.2-0.4,0.5-0.4,0.9
        v0.7L143,67c0.6-0.3,1-0.8,1.1-1.5l0.5-3.9L143.9,59.2z"/>
    <rect x="109.4" y="65.3" class="main_14" width="1.2" height="5.6"/>
    <path class="main_16" d="M108.2,70.9h2.5l0,0v21l0,0h-1.8c-0.3,0-0.6-0.3-0.6-0.6L108.2,70.9L108.2,70.9z"/>
    <path class="main_8" d="M108.2,59.2h3.7l1.2,2.5v3.7H113c-0.6,0-1.2-0.5-1.2-1.1l-0.2-1.8l-0.9,3l1.5,1.5c0.2,0.2,0.4,0.5,0.4,0.9V68
        h-2.2c-0.9,0-1.6-0.6-1.8-1.5l-0.9-4.7L108.2,59.2z"/>
    <path class="main_17" d="M110.6,70.9h2.5l0,0v20.4c0,0.3-0.3,0.6-0.6,0.6h-1.8l0,0L110.6,70.9L110.6,70.9z"/>
    <path class="main_15" d="M110.6,70.9h1.2v-4.3c0-0.7-0.6-1.2-1.2-1.2V70.9z"/>
    <path class="main_18" d="M141.8,27.4c-0.2-1.7-1.3-3.2-2.8-4l-8.8-4.3l-4.1,2.5v32.7l1.3,6.8c0.3,1.4,1.6,2.5,3,2.5h6.7V43.2l1.9,16
        h4.9v-16L141.8,27.4z"/>
    <path class="main_11" d="M121.9,19.1l-8.8,4.3c-1.5,0.8-2.6,2.2-2.8,3.9l-2.1,15.8v16h4.9l1.8-16v20.3h6.7c1.5,0,2.7-1,3-2.5l1.3-6.8
        V21.6L121.9,19.1z"/>
    <polygon class="main_19" points="121.9,19.1 126.1,38.8 130.2,19.1 126.1,20.4   "/>
    <polygon class="main_20" points="126.1,38.8 128.5,32.7 126.7,24 127.9,20.4 124.2,20.4 125.4,24 123.6,32.7  "/>
    <path class="main_21" d="M131.1,19.7l-0.3-0.1c-0.2-0.1-0.4-0.3-0.6-0.5l-4.1,1.2l1.8,3.2L131.1,19.7z"/>
    <path class="main_21" d="M121.3,19.6l-0.3,0.1l3.2,3.8l1.8-3.2l-4.1-1.2C121.8,19.3,121.5,19.5,121.3,19.6z"/>
    <polygon class="main_11" points="131.6,24.7 132.8,23.4 132.1,20.1 130.2,19.1 126.1,38.8 132.8,26.5     "/>
    <polygon class="main_22" points="120.5,24.7 119.3,23.4 120,20.1 121.9,19.1 126.1,38.8 119.3,26.5   "/>
</g>
<g>
    <path class="main_13" d="M8,90H0v-4.4h21.7V90h-8v22.3H8V90z"/>
    <path class="main_13" d="M24.4,85.5h10.2c3,0,6,0,8.1,1.8c1.7,1.4,2.3,3.4,2.3,5.1c0,5-4.3,6.2-5.6,6.5c4,0.4,4.3,2.7,4.8,6.1
        c0.4,3.1,0.6,4.4,0.8,5.2c0.3,1.2,0.5,1.5,0.8,1.9h-6.3c-0.3-1.5-1.1-8.3-1.4-9.3c-0.5-1.5-1.9-1.5-2.9-1.5h-5v10.8h-5.8
        C24.4,112.1,24.4,85.5,24.4,85.5z M30,97.2h4.6c0.7,0,2,0,2.9-0.7c0.4-0.3,1.5-1.2,1.5-3.1c0-1.8-0.9-2.7-1.4-3
        c-0.9-0.6-2-0.6-3.8-0.6H30V97.2z"/>
    <path class="main_13" d="M63.5,85.5l9.3,26.8H67l-1.9-5.8H54.5l-2,5.8H47l9.7-26.8H63.5z M63.6,102.2l-3.7-11.4l-4,11.4H63.6z"/>
    <path class="main_13" d="M76.2,85.5h8.3l10,21.1V85.5h5.3v26.8H92L81.6,90.1v22.2h-5.4V85.5z"/>
    <path class="main_13" d="M129.6,85.6h17.2v4.3h-11.5v6.6H146v4.4h-10.7v11.4h-5.7V85.6z"/>
    <path class="main_13" d="M162,85c2.8,0,6.8,0.7,9.4,3.6c2.8,3.3,3.4,7.4,3.4,10.1c0,3.9-1.2,8-3.4,10.5c-3,3.3-7.3,3.8-9.5,3.8
        c-3.5,0-7-1.1-9.5-3.7c-2.9-3.1-3.3-7.5-3.3-10C149.1,92.2,152.4,85,162,85z M157.1,106.6c0.8,1.1,2.2,2.1,4.8,2.1
        c2.3,0,3.9-0.8,5-2.5c0.9-1.3,1.8-3.4,1.8-7.7c0-1.3-0.1-3.1-0.7-4.8c-1.1-3.3-3.4-4.7-6.1-4.7c-2.1,0-3.8,0.9-4.9,2.3
        c-1.5,1.9-2,4.7-2,7.8C155.1,101.7,155.5,104.5,157.1,106.6z"/>
    <path class="main_13" d="M178.6,85.5h10.2c3,0,6,0,8.1,1.8c1.7,1.4,2.3,3.4,2.3,5.1c0,5-4.3,6.2-5.6,6.5c4,0.4,4.3,2.7,4.8,6.1
        c0.4,3.1,0.6,4.4,0.8,5.2c0.3,1.2,0.5,1.5,0.8,1.9h-6.3c-0.3-1.5-1.1-8.3-1.4-9.3c-0.5-1.5-1.9-1.5-2.9-1.5h-5v10.8h-5.8
        L178.6,85.5L178.6,85.5z M184.3,97.2h4.6c0.7,0,2,0,2.9-0.7c0.4-0.3,1.5-1.2,1.5-3.1c0-1.8-0.9-2.7-1.4-3c-0.9-0.6-2-0.6-3.8-0.6
        h-3.8V97.2z"/>
    <path class="main_13" d="M203.3,85.5h9.4l5.7,19.5l6.1-19.5h9.1v26.8h-5.7v-23l-7.3,22.9h-4.7l-7.1-22.9v22.9h-5.4V85.5H203.3z"/>
</g>
</svg>
