<?xml version="1.0" encoding="utf-8"?>
<!-- Generator: Adobe Illustrator 21.1.0, SVG Export Plug-In . SVG Version: 6.00 Build 0)  -->
<svg version="1.1" id="Icons" xmlns="http://www.w3.org/2000/svg" xmlns:xlink="http://www.w3.org/1999/xlink" x="0px" y="0px"
     viewBox="0 0 192 126" style="enable-background:new 0 0 192 126;" xml:space="preserve">
<defs>
    
    <clippath  id="clipmask">
        <rect  class="st1" height="72" id="clipp" width="126" x="40.5" y="46.5"></rect>
    </clippath>
</defs>
<rect id="bluebg" x="33" y="6" style="fill:#BDE6EE;" width="126" height="72"/>
<g id="laptop">
    <path style="fill:#CBCECE;" d="M162,84H30c-1.9,0-3.7,0.9-4.8,2.4L0,120h192l-25.2-33.6C165.7,84.9,163.9,84,162,84z"/>
    <path style="fill:#939699;" d="M162,0H30c-1.7,0-3,1.3-3,3v78c0,1.7,1.3,3,3,3h132c1.7,0,3-1.3,3-3V3C165,1.3,163.7,0,162,0z
         M159,78H33V6h126V78z"/>
    <path style="fill:#A6A9AB;" d="M0,120h192l0,0v3c0,1.7-1.3,3-3,3H3c-1.7,0-3-1.3-3-3V120L0,120z"/>
</g>
<path id="touchpad" style="fill:#A6A9AB;" d="M123.6,107.2c-0.4-1.3-1.5-2.2-2.9-2.2H71.3c-1.3,0.1-2.5,1-2.9,2.2l-1.9,7.5
    c-0.3,0.9,0.2,1.9,1.1,2.2c0.2,0.1,0.4,0.1,0.6,0.1h55.4c0.9,0.1,1.8-0.7,1.8-1.6c0-0.2,0-0.4-0.1-0.6L123.6,107.2z"/>
<g id="keyboard">
    <polygon style="fill:#939699;" points="40.2,90.4 35.3,90.4 37.2,87.9 42,87.9    "/>
    <polygon style="fill:#939699;" points="46.7,90.4 41.8,90.4 43.5,87.9 48.3,87.9  "/>
    <polygon style="fill:#939699;" points="53.2,90.4 48.3,90.4 49.8,87.9 54.5,87.9  "/>
    <polygon style="fill:#939699;" points="59.6,90.4 54.7,90.4 56,87.9 60.8,87.9    "/>
    <polygon style="fill:#939699;" points="66.1,90.4 61.2,90.4 62.3,87.9 67.1,87.9  "/>
    <polygon style="fill:#939699;" points="72.6,90.4 67.7,90.4 68.6,87.9 73.3,87.9  "/>
    <polygon style="fill:#939699;" points="79,90.4 74.1,90.4 74.8,87.9 79.6,87.9    "/>
    <polygon style="fill:#939699;" points="85.5,90.4 80.6,90.4 81.1,87.9 85.9,87.9  "/>
    <polygon style="fill:#939699;" points="92,90.4 87.1,90.4 87.4,87.9 92.1,87.9    "/>
    <polygon style="fill:#939699;" points="98.5,90.4 93.5,90.4 93.6,87.9 98.4,87.9  "/>
    <polygon style="fill:#939699;" points="104.9,90.4 100,90.4 99.9,87.9 104.6,87.9     "/>
    <polygon style="fill:#939699;" points="111.4,90.4 106.5,90.4 106.1,87.9 110.9,87.9  "/>
    <polygon style="fill:#939699;" points="117.9,90.4 113,90.4 112.4,87.9 117.2,87.9    "/>
    <polygon style="fill:#939699;" points="124.3,90.4 119.4,90.4 118.7,87.9 123.4,87.9  "/>
    <polygon style="fill:#939699;" points="130.8,90.4 125.9,90.4 124.9,87.9 129.7,87.9  "/>
    <polygon style="fill:#939699;" points="137.3,90.4 132.4,90.4 131.2,87.9 136,87.9    "/>
    <polygon style="fill:#939699;" points="143.8,90.4 138.8,90.4 137.5,87.9 142.2,87.9  "/>
    <polygon style="fill:#939699;" points="150.2,90.4 145.3,90.4 143.8,87.9 148.5,87.9  "/>
    <polygon style="fill:#939699;" points="156.7,90.4 151.8,90.4 150,87.9 154.8,87.9    "/>
    <polygon style="fill:#939699;" points="37.7,93.9 32.5,93.9 34.6,91.2 39.6,91.2  "/>
    <polygon style="fill:#939699;" points="44.4,93.9 39.3,93.9 41.2,91.2 46.2,91.2  "/>
    <polygon style="fill:#939699;" points="51.2,93.9 46.1,93.9 47.7,91.2 52.7,91.2  "/>
    <polygon style="fill:#939699;" points="58,93.9 52.8,93.9 54.3,91.2 59.2,91.2    "/>
    <polygon style="fill:#939699;" points="64.7,93.9 59.6,93.9 60.8,91.2 65.8,91.2  "/>
    <polygon style="fill:#939699;" points="71.5,93.9 66.4,93.9 67.3,91.2 72.3,91.2  "/>
    <polygon style="fill:#939699;" points="78.3,93.9 73.1,93.9 73.9,91.2 78.9,91.2  "/>
    <polygon style="fill:#939699;" points="85,93.9 79.9,93.9 80.4,91.2 85.4,91.2    "/>
    <polygon style="fill:#939699;" points="91.8,93.9 86.7,93.9 87,91.2 91.9,91.2    "/>
    <polygon style="fill:#939699;" points="98.6,93.9 93.4,93.9 93.5,91.2 98.5,91.2  "/>
    <polygon style="fill:#939699;" points="105.3,93.9 100.2,93.9 100.1,91.2 105,91.2    "/>
    <polygon style="fill:#939699;" points="112.1,93.9 107,93.9 106.6,91.2 111.6,91.2    "/>
    <polygon style="fill:#939699;" points="118.9,93.9 113.7,93.9 113.1,91.2 118.1,91.2  "/>
    <polygon style="fill:#939699;" points="125.6,93.9 120.5,93.9 119.7,91.2 124.6,91.2  "/>
    <polygon style="fill:#939699;" points="132.4,93.9 127.3,93.9 126.2,91.2 131.2,91.2  "/>
    <polygon style="fill:#939699;" points="139.2,93.9 134,93.9 132.8,91.2 137.7,91.2    "/>
    <polygon style="fill:#939699;" points="145.9,93.9 140.8,93.9 139.3,91.2 144.3,91.2  "/>
    <polygon style="fill:#939699;" points="152.7,93.9 147.6,93.9 145.9,91.2 150.8,91.2  "/>
    <polygon style="fill:#939699;" points="159.5,93.9 154.3,93.9 152.4,91.2 157.4,91.2  "/>
    <polygon style="fill:#939699;" points="34.9,97.8 29.5,97.8 31.8,94.8 37,94.8    "/>
    <polygon style="fill:#939699;" points="42,97.8 36.6,97.8 38.7,94.8 43.8,94.8    "/>
    <polygon style="fill:#939699;" points="49.1,97.8 43.7,97.8 45.5,94.8 50.7,94.8  "/>
    <polygon style="fill:#939699;" points="56.2,97.8 50.8,97.8 52.3,94.8 57.5,94.8  "/>
    <polygon style="fill:#939699;" points="63.3,97.8 57.9,97.8 59.2,94.8 64.4,94.8  "/>
    <polygon style="fill:#939699;" points="70.3,97.8 64.9,97.8 66,94.8 71.2,94.8    "/>
    <polygon style="fill:#939699;" points="77.4,97.8 72,97.8 72.9,94.8 78.1,94.8    "/>
    <polygon style="fill:#939699;" points="84.5,97.8 79.1,97.8 79.7,94.8 84.9,94.8  "/>
    <polygon style="fill:#939699;" points="91.6,97.8 86.2,97.8 86.6,94.8 91.8,94.8  "/>
    <polygon style="fill:#939699;" points="98.7,97.8 93.3,97.8 93.4,94.8 98.6,94.8  "/>
    <polygon style="fill:#939699;" points="105.8,97.8 100.4,97.8 100.3,94.8 105.4,94.8  "/>
    <polygon style="fill:#939699;" points="112.9,97.8 107.5,97.8 107.1,94.8 112.3,94.8  "/>
    <polygon style="fill:#939699;" points="120,97.8 114.6,97.8 113.9,94.8 119.1,94.8    "/>
    <polygon style="fill:#939699;" points="127,97.8 121.7,97.8 120.8,94.8 126,94.8  "/>
    <polygon style="fill:#939699;" points="134.1,97.8 128.8,97.8 127.6,94.8 132.8,94.8  "/>
    <polygon style="fill:#939699;" points="141.2,97.8 135.8,97.8 134.5,94.8 139.7,94.8  "/>
    <polygon style="fill:#939699;" points="148.3,97.8 142.9,97.8 141.3,94.8 146.5,94.8  "/>
    <polygon style="fill:#939699;" points="155.4,97.8 150,97.8 148.1,94.8 153.3,94.8    "/>
    <polygon style="fill:#939699;" points="165.8,102 160.2,102 155,94.8 160.2,94.8  "/>
    <polygon style="fill:#939699;" points="31.8,102 26.2,102 28.7,98.8 34.2,98.8    "/>
    <polygon style="fill:#939699;" points="39.3,102 33.6,102 35.9,98.8 41.3,98.8    "/>
    <polygon style="fill:#939699;" points="128.6,102 41.1,102 43.1,98.8 127.4,98.8  "/>
    <polygon style="fill:#939699;" points="136,102 130.4,102 129.1,98.8 134.6,98.8  "/>
    <polygon style="fill:#939699;" points="143.5,102 137.8,102 136.3,98.8 141.8,98.8    "/>
    <polygon style="fill:#939699;" points="150.9,102 145.3,102 143.5,98.8 148.9,98.8    "/>
    <polygon style="fill:#939699;" points="158.4,102 152.7,102 150.7,98.8 156.1,98.8    "/>
</g>
<g>
    <circle id="dot1" style="fill:#939699;" cx="72.2" cy="43.2" r="7.5"/>
    <circle id="dot2" style="fill:#939699;" cx="96.2" cy="43.2" r="7.5"/>
    <circle id="dot2_2_" style="fill:#939699;" cx="120.1" cy="43.2" r="7.5"/>
</g>
<path style="fill:#6D8C9E;" d="M105.8,43.5l15.9-15.9c1.8-1.8,1.8-4.6,0-6.4l-3.2-3.2c-1.8-1.8-4.6-1.8-6.4,0L96.2,34L80.3,18.1
    c-1.8-1.8-4.6-1.8-6.4,0l-3.2,3.2c-1.8,1.8-1.8,4.6,0,6.4l15.9,15.9L70.8,59.4c-1.7,1.8-1.7,4.6,0,6.4L74,69c1.8,1.8,4.6,1.8,6.4,0
    l15.9-15.9L112.1,69c1.8,1.8,4.6,1.8,6.4,0l3.2-3.2c1.7-1.8,1.7-4.6,0-6.4L105.8,43.5z"/>
<polygon id="glare" style="opacity:0.2;fill:#D3EEF4;enable-background:new    ;" points="33,6 33,78 57,78 129,6 "/>
</svg>
