<?xml version="1.0" encoding="utf-8"?>
<!-- Generator: Adobe Illustrator 22.1.0, SVG Export Plug-In . SVG Version: 6.00 Build 0)  -->
<svg version="1.1" id="logo" xmlns="http://www.w3.org/2000/svg" xmlns:xlink="http://www.w3.org/1999/xlink" x="0px" y="0px"
	 viewBox="0 0 136.9 56.5" style="enable-background:new 0 0 136.9 56.5;" xml:space="preserve">
<g>
	<rect id="Clearspace_1_" style="fill:none;" width="136.9" height="56.5"/>
	<path style="fill:#E30613;" d="M55.5,21h6.5l-3.5-5.6l-6.3,10.1h-2.9l7.7-12.1c0.3-0.5,0.9-0.8,1.5-0.8c0.6,0,1.2,0.3,1.5,0.8
		l7.8,12.1H65l-1.4-2.3H57L55.5,21 M85.6,23.3V12.8h-2.5v11.5c0,0.3,0.1,0.6,0.4,0.8c0.2,0.2,0.6,0.4,0.9,0.4h11.2l1.5-2.3H85.6
		 M45,21.4c2.4,0,4.3-1.9,4.3-4.3s-1.9-4.3-4.3-4.3H34.2v12.8h2.5V15h8.1c1.1,0,2.1,0.9,2.1,2.1c0,1.1-0.9,2.1-2.1,2.1l-6.9,0
		l7.3,6.4h3.6l-4.9-4.1H45 M19.2,25.5h7.4c3.5,0,6.4-2.9,6.4-6.4c0-3.5-2.8-6.4-6.4-6.4h-7.4c-3.5,0-6.4,2.9-6.4,6.4
		C12.8,22.7,15.6,25.5,19.2,25.5 M26.4,23.3h-7.1c-2.3,0-4.1-1.9-4.1-4.1c0-2.3,1.8-4.1,4.1-4.1h7.1c2.3,0,4.1,1.8,4.1,4.1
		C30.5,21.4,28.7,23.3,26.4,23.3 M73,25.5h7.6l1.4-2.2h-8.8c-2.3,0-4.1-1.9-4.1-4.1c0-2.3,1.8-4.1,4.1-4.1h7.2l1.5-2.3H73
		c-3.5,0-6.4,2.9-6.4,6.4C66.6,22.7,69.5,25.5,73,25.5 M103,23.3c-1.9,0-3.5-1.3-4-3h10.5L111,18H99c0.5-1.7,2.1-3,4-3h7.2l1.4-2.3
		h-8.8c-3.5,0-6.4,2.9-6.4,6.4c0,3.5,2.9,6.4,6.4,6.4h7.6l1.4-2.2H103 M113,14.1c0-0.6,0.5-1.1,1.1-1.1c0.6,0,1.1,0.5,1.1,1.1
		c0,0.6-0.5,1.1-1.1,1.1C113.5,15.3,113,14.7,113,14.1 M114.1,15.6c0.8,0,1.4-0.6,1.4-1.4s-0.6-1.4-1.4-1.4c-0.8,0-1.4,0.6-1.4,1.4
		S113.3,15.6,114.1,15.6 M114,13.3c0.2,0,0.3,0,0.4,0c0.3,0.1,0.3,0.4,0.3,0.4c0,0,0,0.1,0,0.1c0,0.1,0,0.2-0.2,0.3c0,0,0,0-0.1,0
		l0.4,0.7h-0.4l-0.3-0.6h-0.2v0.6h-0.3v-1.6H114 M114.1,14c0.1,0,0.2,0,0.3-0.1c0,0,0-0.1,0-0.1c0-0.1-0.1-0.2-0.1-0.2
		c-0.1,0-0.1,0-0.3,0h-0.1V14H114.1"/>
	<path d="M14,33.2h3.5c1.3,0,2.2,0.1,2.9,0.8c0.5,0.5,0.8,1.3,0.8,2c0,0.8-0.3,1.5-0.8,2.1C19.8,38.7,19,39,17.1,39h-1.7v4.7H14
		V33.2z M15.4,37.8h1.7c1,0,2.4-0.1,2.4-1.8c0-1.6-1.4-1.6-2.1-1.6h-2V37.8z M27,43.7c-0.1-0.4-0.1-0.7-0.1-1.1
		c-0.7,1.2-1.6,1.3-2.3,1.3c-1.7,0-2.6-0.9-2.6-2.2c0-0.6,0.2-1.5,1.3-2.1c0.8-0.4,2-0.5,2.5-0.5c0.3,0,0.6,0,1,0
		c0-0.9,0-1.3-0.3-1.6c-0.3-0.4-0.9-0.5-1.3-0.5c-1.4,0-1.5,0.9-1.5,1.2h-1.4c0-0.4,0.1-0.9,0.5-1.4c0.6-0.6,1.6-0.8,2.4-0.8
		c1.1,0,2.2,0.3,2.6,1.1c0.2,0.4,0.2,0.8,0.2,1.1l-0.1,3.5c0,0.1,0,1.1,0.1,1.8H27z M26,40.1c-0.6,0-2.6,0-2.6,1.5
		c0,0.5,0.3,1.3,1.5,1.3c0.7,0,1.2-0.3,1.6-0.8c0.3-0.5,0.3-0.9,0.3-1.9C26.6,40.1,26.4,40.1,26,40.1z M30.6,37.9c0-0.5,0-1-0.1-1.5
		h1.4l0,1.4c0.3-1,1.1-1.4,1.7-1.4c0.4-0.1,0.7,0,0.9,0v1.3c-0.1,0-0.2,0-0.3-0.1c-0.1,0-0.2,0-0.4,0c-1.6,0-2,1-2,2.2v3.9h-1.4
		V37.9z M36.1,36.4h1.3v-1.5l1.4-0.4v2h1.6v1h-1.6v4.4c0,0.4,0,1,1,1c0.3,0,0.5,0,0.7-0.1v1.1c-0.2,0-0.6,0.1-1.1,0.1
		c-1.3,0-1.8-0.4-1.8-1.6v-4.9h-1.3V36.4z M42.5,37.2l0-0.8h1.4l0,1.2c0.2-0.3,0.7-1.3,2.3-1.3c0.7,0,2.6,0.2,2.6,2.5v5h-1.4v-4.6
		c0-0.5-0.1-0.9-0.4-1.3c-0.3-0.3-0.8-0.5-1.3-0.5c-1,0-1.9,0.7-1.9,2.2v4.2h-1.4V37.2z M52.3,40.3c0,1.5,0.6,2.6,2.1,2.6
		c0.9,0,1.6-0.5,1.7-1.5h1.4c0,0.4-0.1,1-0.6,1.5c-0.3,0.4-1,1-2.5,1c-2.3,0-3.4-1.4-3.4-3.7c0-1.4,0.3-2.6,1.4-3.4
		c0.7-0.5,1.6-0.5,2-0.5c3.3,0,3.2,2.9,3.2,4.1H52.3z M56.2,39.3c0-0.7-0.1-2.2-1.8-2.2c-0.9,0-2,0.5-2,2.2H56.2z M59.9,37.9
		c0-0.5,0-1-0.1-1.5h1.4l0,1.4c0.3-1,1.1-1.4,1.7-1.4c0.4-0.1,0.7,0,0.9,0v1.3c-0.1,0-0.2,0-0.3-0.1c-0.1,0-0.2,0-0.4,0
		c-1.6,0-2,1-2,2.2v3.9h-1.4V37.9z M66.1,33.2h2l5.2,8.7v-8.7h1.3v10.5h-1.9l-5.3-8.9v8.9h-1.3V33.2z M78,40.3
		c0,1.5,0.6,2.6,2.1,2.6c0.9,0,1.6-0.5,1.7-1.5h1.4c0,0.4-0.1,1-0.6,1.5c-0.3,0.4-1,1-2.5,1c-2.3,0-3.4-1.4-3.4-3.7
		c0-1.4,0.3-2.6,1.4-3.4c0.7-0.5,1.6-0.5,2-0.5c3.3,0,3.2,2.9,3.2,4.1H78z M81.9,39.3c0-0.7-0.1-2.2-1.8-2.2c-0.9,0-2,0.5-2,2.2
		H81.9z M84.7,36.4H86v-1.5l1.4-0.4v2h1.6v1h-1.6v4.4c0,0.4,0,1,1,1c0.3,0,0.5,0,0.7-0.1v1.1c-0.2,0-0.6,0.1-1.1,0.1
		c-1.3,0-1.8-0.4-1.8-1.6v-4.9h-1.3V36.4z M91.8,36.4l1.8,5.8l1.8-5.8h1.8l1.7,5.8l1.8-5.8h1.4l-2.6,7.3H98l-1.7-6l-1.9,6h-1.6
		l-2.4-7.3H91.8z M106.8,36.2c2.9,0,3.6,2.3,3.6,3.8c0,2.1-1.2,3.9-3.7,3.9c-2.4,0-3.6-1.7-3.6-3.8
		C103.1,38.3,103.9,36.2,106.8,36.2z M106.7,42.9c1,0,2.2-0.7,2.2-2.9c0-1.8-0.8-2.8-2.1-2.8c-0.9,0-2.3,0.6-2.3,2.8
		C104.5,41.5,105.1,42.9,106.7,42.9z M112.4,37.9c0-0.5,0-1-0.1-1.5h1.4l0,1.4c0.3-1,1.1-1.4,1.7-1.4c0.4-0.1,0.7,0,0.9,0v1.3
		c-0.1,0-0.2,0-0.3-0.1c-0.1,0-0.2,0-0.4,0c-1.6,0-2,1-2,2.2v3.9h-1.4V37.9z M118.2,33.1h1.4v6.3l2.7-3h1.8l-3.1,3.1l3.3,4.2h-1.8
		l-2.9-3.9v3.9h-1.4V33.1z"/>
</g>
</svg>
