<svg version="1.1" id="oLogo" xmlns="http://www.w3.org/2000/svg" xmlns:xlink="http://www.w3.org/1999/xlink" x="0px" y="0px"
     viewBox="0 0 106.8 39.1" enable-background="new 0 0 106.8 39.1" xml:space="preserve">
<rect y="0" fill="#E2001A" width="106.8" height="39.1"/>
<g>
    <defs>
        <rect id="SVGID_1_" y="0" width="106.8" height="39.1"/>
    </defs>
    <clipPath id="SVGID_2_">
        <use xlink:href="#SVGID_1_"  overflow="visible"/>
    </clipPath>
    <path clip-path="url(#SVGID_2_)" fill="#FFFFFF" d="M84.5,22.7c-1.4,0-2.7-1-3-2.3h8l1.1-1.7h-9.1c0.4-1.3,1.6-2.3,3-2.3h5.5
        l1.1-1.7h-6.8c-2.7,0-4.9,2.2-4.9,4.9c0,2.7,2.2,4.9,4.9,4.9h5.8l1.1-1.7H84.5z M61.6,24.4c-2.7,0-4.9-2.2-4.9-4.9
        c0-2.7,2.2-4.9,4.9-4.9h6.7l-1.1,1.7h-5.5c-1.7,0-3.2,1.4-3.2,3.2c0,1.7,1.4,3.2,3.2,3.2h6.8l-1.1,1.7H61.6z M25.9,22.7
        c1.7,0,3.2-1.4,3.2-3.2c0-1.7-1.4-3.2-3.2-3.2h-5.4c-1.7,0-3.2,1.4-3.2,3.2c0,1.7,1.4,3.2,3.2,3.2H25.9z M20.4,24.4
        c-2.7,0-4.9-2.2-4.9-4.9c0-2.7,2.2-4.9,4.9-4.9H26c2.7,0,4.9,2.2,4.9,4.9c0,2.7-2.2,4.9-4.9,4.9H20.4z M40.1,21.3
        c1.8,0,3.3-1.5,3.3-3.3c0-1.8-1.5-3.3-3.3-3.3h-8.2v9.8h1.9v-8H40c0.9,0,1.6,0.7,1.6,1.6c0,0.9-0.7,1.6-1.6,1.6l-5.3,0l5.6,4.9H43
        l-3.8-3.2H40.1z M71.2,22.7v-8h-1.9v8.8c0,0.2,0.1,0.5,0.3,0.7c0.2,0.2,0.4,0.3,0.7,0.3h8.6l1.1-1.7H71.2z M48.2,21h5l-2.6-4.3
        l-4.9,7.7h-2.2l5.9-9.3c0.3-0.4,0.7-0.6,1.2-0.6c0.5,0,0.9,0.2,1.1,0.6l5.9,9.3h-2.2l-1-1.7h-5.1L48.2,21z"/>
    <path clip-path="url(#SVGID_2_)" fill="#FFFFFF" d="M93,15.6c0.1,0,0.2,0,0.2-0.1c0,0,0-0.1,0-0.1c0-0.1,0-0.1-0.1-0.2
        c-0.1,0-0.1,0-0.2,0h-0.1v0.3H93z M92.9,15.1c0.2,0,0.2,0,0.3,0c0.2,0.1,0.2,0.3,0.2,0.3c0,0,0,0.1,0,0.1c0,0,0,0.1-0.2,0.2
        c0,0,0,0-0.1,0l0.3,0.5h-0.3L93,15.8h-0.2v0.5h-0.2v-1.2H92.9z M93,16.8c0.6,0,1.1-0.5,1.1-1.1c0-0.6-0.5-1.1-1.1-1.1
        c-0.6,0-1.1,0.5-1.1,1.1C92,16.3,92.4,16.8,93,16.8 M92.2,15.7c0-0.5,0.4-0.9,0.9-0.9c0.5,0,0.9,0.4,0.9,0.9c0,0.5-0.4,0.9-0.9,0.9
        C92.6,16.6,92.2,16.2,92.2,15.7"/>
</g>
</svg>