<svg version="1.1" id="Layer_1" xmlns="http://www.w3.org/2000/svg" xmlns:xlink="http://www.w3.org/1999/xlink" x="0px" y="0px"
	 viewBox="0 0 448 168" style="enable-background:new 0 0 448 168;" xml:space="preserve">
<g>
	<rect x="160" y="-60" style="fill:none;" width="288" height="288"/>
	<path id="sceneFiveImageTwoArrowOne" style="fill:#F29111;" d="M319.4,3.4c-4.7-4.7-12.3-4.7-17,0l-8.5,8.5c-4.7,4.7-4.7,12.3,0,17L331.1,66H220
		c-6.6,0-12,5.4-12,12v12c0,6.6,5.4,12,12,12h111.1l-37.2,37.2c-4.7,4.7-4.7,12.3,0,17l8.5,8.5c4.7,4.7,12.3,4.7,17,0l55.2-55.2
		L400,84L319.4,3.4z"/>
</g>
<g>
	<rect y="-60" style="fill:none;" width="288" height="288"/>
	<path id="sceneFiveImageTwoArrowTwo" style="fill:#F80000;" d="M159.4,3.4c-4.7-4.7-12.3-4.7-17,0l-8.5,8.5c-4.7,4.7-4.7,12.3,0,17L171.1,66H60
		c-6.6,0-12,5.4-12,12v12c0,6.6,5.4,12,12,12h111.1l-37.2,37.2c-4.7,4.7-4.7,12.3,0,17l8.5,8.5c4.7,4.7,12.3,4.7,17,0l55.2-55.2
		L240,84L159.4,3.4z"/>
</g>
</svg>
