<?xml version="1.0" encoding="utf-8"?>
<!-- Generator: Adobe Illustrator 21.1.0, SVG Export Plug-In . SVG Version: 6.00 Build 0)  -->
<svg version="1.1" id="Icons" xmlns="http://www.w3.org/2000/svg" xmlns:xlink="http://www.w3.org/1999/xlink" x="0px" y="0px"
     viewBox="0 0 192 150" style="enable-background:new 0 0 192 150;" xml:space="preserve">
<rect style="fill:#EBCAD3;" width="192" height="150"/>
<polygon style="fill:#942645;" points="54,99 60,99 60,93 60,72 66,72 66,79.6 66,85.6 72,85.6 78,85.6 84,85.6 84,79.6 84,46.3 
    85,46.3 86.5,46.3 87.8,45.6 93,42.8 98.2,45.6 99.5,46.3 101,46.3 102,46.3 102,93 102,99 108,99 114,99 120,99 120,93 120,66 
    129,66 129,85.6 129,91.6 135,91.6 141,91.6 147,91.6 147,85.6 147,74.5 159,69.2 159,93 159,99 165,99 171,99 171,93 165,93 
    165,60 141,70.6 141,85.6 135,85.6 135,60 114,60 114,93 108,93 108,40.3 101,40.3 93,36 85,40.3 78,40.3 78,79.6 72,79.6 72,66 
    54,66 54,93 48,93 48,99 "/>
<polygon style="fill:#942645;" points="168,114 168,120 111,120 111,114 108,114 108,120 51,120 51,114 48,114 48,129 51,129 
    51,123 108,123 108,129 111,129 111,123 168,123 168,129 171,129 171,114 "/>
<path style="fill:#FFFFFF;" d="M36,6H6v138h180V6H36z M9,9h24v87H9V9z M9,141V99h24v42H9z M183,141H36V9h147V141z"/>
<path style="fill:#942645;" d="M171,24c0,1.7-1.3,3-3,3h-21c-1.7,0-3-1.3-3-3l0,0c0-1.7,1.3-3,3-3h21C169.7,21,171,22.3,171,24z"/>
<path style="fill:#942645;" d="M162,36c0,1.7-1.3,3-3,3h-12c-1.7,0-3-1.3-3-3l0,0c0-1.7,1.3-3,3-3h12C160.7,33,162,34.3,162,36z"/>
<path style="fill:#592439;" d="M138,24c0,1.7-1.3,3-3,3h-12c-1.7,0-3-1.3-3-3l0,0c0-1.7,1.3-3,3-3h12C136.7,21,138,22.3,138,24z"/>
<path style="fill:#592439;" d="M138,36c0,1.7-1.3,3-3,3h-12c-1.7,0-3-1.3-3-3l0,0c0-1.7,1.3-3,3-3h12C136.7,33,138,34.3,138,36z"/>
</svg>
