<?xml version="1.0" encoding="utf-8"?>
<!-- Generator: Adobe Illustrator 21.1.0, SVG Export Plug-In . SVG Version: 6.00 Build 0)  -->
<svg version="1.1" id="Icons" xmlns="http://www.w3.org/2000/svg" xmlns:xlink="http://www.w3.org/1999/xlink" x="0px" y="0px"
     viewBox="0 0 192 192" style="enable-background:new 0 0 192 192;" xml:space="preserve">
<g id="person_x5F_top_x5F_left">
    <rect y="30" style="fill:#CAD9DE;" width="39" height="54"/>
    <path style="fill:#4F6C7D;" d="M22.2,58.6h5.4C29.1,56,30,51.4,30,48.4v-0.1c0,0,0-0.1,0-0.1c0-7.2-3.7-10.6-9-10.6L19.8,36
        C14.9,36,9,39.2,9,47.3c0,3.6,1.5,8.3,6.5,9.9c-0.8-1.1-1.3-2.2-1.6-3.5c-1-0.2-1.7-1-1.9-2L11.7,50c-0.1-0.9,0.4-1.7,1.3-1.9
        c0-0.9,0-1.5,0-1.5c-0.1-2.2,1.2-4.3,3.2-5.2c0,3.7,3.1,6.7,6.8,6.7c0,0,0,0,0,0h1.3c0.8,0,1.6,0.6,1.7,1.4
        C25.9,52.2,25.3,56.8,22.2,58.6z"/>
    <path style="fill:#4F6C7D;" d="M0,84h39v-4.1l-1.9-9.7c-0.4-2.2-1.9-4-3.9-4.9l-8.1-3.5L25,61.7c-0.2-0.1-0.3-0.2-0.5-0.3l3.9,7.7
        H26l-4.8,12.1l2-17.8c-2.3,1.1-4.9,1.1-7.2,0l2,17.8l-5-12.1h-2.4l3.9-7.7c-0.1,0.1-0.3,0.2-0.5,0.3l-0.2,0.1l-8.1,3.5
        c-2,0.9-3.5,2.7-3.9,4.9L0,79.9V84z"/>
</g>
<g id="person_x5F_bot_x5F_left">
    <rect x="12" y="129" style="fill:#CAD9DE;" width="33" height="45"/>
    <path style="fill:#4F6C7D;" d="M21.7,146.8l0.3,2.1c0.1,0.6,0.7,1.1,1.3,1.1l0,0c0.7,5,4.5,5.3,5.1,5.3h0.2c0.6,0,4.4-0.2,5.1-5.3
        l0,0c0.7,0,1.2-0.5,1.3-1.2l0.3-2.1c0.1-0.6-0.2-1.1-0.7-1.4c0.3-1.3,0.4-2.6,0.4-3.9c-0.2-2.7-2.4-4.9-5.1-5.2l-1-1.3
        c-7.1,0.3-7,6.1-7,6.1v0.7c0.1,1.2,0.2,2.4,0.4,3.6C21.9,145.7,21.6,146.2,21.7,146.8z M35.1,157.2L35.1,157.2l-0.4-0.2l-1.7-0.9
        l0,0L30.5,168l-1.4-6.4l0.6-1.8l-1.3-2.2l-1.3,2.2l0.6,1.9l-1.3,6.4L24,156.1l0,0l-12,6.1V174h33v-11.9L35.1,157.2z"/>
    <polygon style="fill:#939699;" points="15,156.1 15,156.1 15,156.1   "/>
    <polygon style="fill:#939699;" points="24,156.1 24,156.1 24,156.1   "/>
</g>
<g id="person_x5F_bot">
    <rect x="93" y="156" style="fill:#CAD9DE;" width="27" height="36"/>
    <path style="fill:#4F6C7D;" d="M110.3,179.8c-0.1-0.1-0.2-0.1-0.3-0.2l2.7,5.3H111l-2.9,7.1h11.8l-1.2-6.3
        c-0.3-1.5-1.3-2.8-2.7-3.4L110.3,179.8L110.3,179.8z"/>
    <path style="fill:#4F6C7D;" d="M106.5,181.6c-0.9,0-1.7-0.2-2.5-0.6l1.2,11h2.5l1.2-11C108.2,181.4,107.4,181.6,106.5,181.6z"/>
    <path style="fill:#4F6C7D;" d="M104.9,192l-2.9-7.1h-1.7l2.7-5.3c-0.1,0.1-0.2,0.1-0.3,0.2h-0.1l-5.6,2.4c-1.4,0.6-2.4,1.9-2.7,3.4
        l-1.2,6.4H104.9z"/>
    <path style="fill:#4F6C7D;" d="M103.7,176.7c-0.5-0.7-0.9-1.6-1.1-2.4c-0.7-0.1-1.2-0.7-1.3-1.4l-0.2-1.2c-0.1-0.6,0.3-1.2,0.9-1.3
        c0-0.6,0-1,0-1c-0.1-1.5,0.8-3,2.2-3.6c0,2.6,2.1,4.6,4.7,4.6h0.9c0.6,0,1,0.4,1.1,1c-0.1,1.8-0.5,5.1-2.6,6.3h3.7
        c1.1-2.2,1.7-4.6,1.7-7.1v-0.2c0-5-2.5-7.3-6.2-7.3l-0.8-1.1c-3.4,0-7.5,2.2-7.5,7.8C99.2,172.3,100.2,175.6,103.7,176.7z"/>
</g>
<g id="peson_x5F_top">
    <rect x="78" style="fill:#CAD9DE;" width="27" height="36"/>
    <polygon style="fill:#939699;" points="87.8,21.4 87.8,21.4 87.8,21.4    "/>
    <polygon style="fill:#939699;" points="95.2,21.4 95.2,21.4 95.2,21.4    "/>
    <path style="fill:#4F6C7D;" d="M85.9,15.7l0.2,1.7c0.1,0.6,0.5,1,1.1,1l0,0c0.6,4.1,3.7,4.3,4.2,4.3h0.1c0.5,0,3.6-0.2,4.2-4.3l0,0
        c0.6,0,1-0.4,1.1-1l0.2-1.7c0.1-0.5-0.2-0.9-0.6-1.1c0.2-1,0.3-2.1,0.4-3.2c-0.2-2.3-1.9-4.1-4.2-4.3L91.9,6c-5.8,0.3-5.8,5-5.8,5
        v0.6c0,1,0.2,2,0.4,3C86.1,14.8,85.9,15.2,85.9,15.7z"/>
    <polygon style="fill:#4F6C7D;" points="105,36 105,28.2 96.9,24.1 96.9,24.1 96.6,23.9 95.2,23.2 95.2,23.2 95.2,23.2 93.2,33 
        92.1,27.7 92.6,26.2 91.5,24.5 90.4,26.2 90.9,27.8 89.8,33 87.8,23.2 87.8,23.2 87.8,23.2 78,28.2 78,36   "/>
</g>
<g id="person_x5F_bot_x5F_right">
    <rect x="153" y="102" style="fill:#CAD9DE;" width="39" height="54"/>
    <path style="fill:#4F6C7D;" d="M164.5,122l0.4,2.4c0.1,0.8,0.8,1.4,1.6,1.4l0,0c0.8,6,5.3,6.2,6,6.2h0.2c0.7,0,5.2-0.3,6-6.2l0,0
        c0.8,0,1.5-0.6,1.6-1.4l0.4-2.4c0.1-0.7-0.2-1.3-0.8-1.6c0.3-1.5,0.5-3,0.5-4.6c-0.2-3.3-2.8-5.9-6.1-6.2l-1.1-1.6
        c-8.4,0.4-8.3,7.2-8.3,7.2v0.8c0.1,1.4,0.2,2.9,0.5,4.3C164.7,120.7,164.4,121.3,164.5,122z"/>
    <polygon style="fill:#4F6C7D;" points="192,140.1 180.4,134.2 180.4,134.2 179.8,133.9 177.8,132.9 177.8,132.9 177.8,132.9 
        174.9,147 173.3,139.4 174,137.2 172.5,134.7 170.9,137.3 171.7,139.5 170.1,147 167.2,132.9 167.2,132.9 167.2,132.9 153,140.1 
        153,156 192,156     "/>
    <polygon style="fill:#939699;" points="167.2,132.9 167.2,132.9 167.2,132.9  "/>
    <polygon style="fill:#939699;" points="177.8,132.9 177.8,132.9 177.8,132.9  "/>
</g>
<g id="hero">
    <g>
        <defs>
            <rect id="SVGID_1_" x="60" y="54" width="72" height="84"/>
        </defs>
        <clipPath id="SVGID_2_">
            <use xlink:href="#SVGID_1_"  style="overflow:visible;"/>
        </clipPath>
        <g style="clip-path:url(#SVGID_2_);">
            <rect x="60" y="54" style="fill:#E9EAEA;" width="72" height="84"/>
        </g>
    </g>
    <polygon style="fill:#8AADBF;" points="96,138 96,102.7 89.7,102.7 81.1,138  "/>
    <polygon style="fill:#AAC3CF;" points="110.9,138 102.3,102.7 96,102.7 96,138    "/>
    <path d="M112.4,85.3v-0.1c0-0.1,0-0.1,0-0.2c0-11.3-5.8-16.6-14-16.6L96.6,66c-7.8,0-17,5-17,17.7c0,6.9,3.5,16.4,16.4,16.4v1.3
        h12.7C111.1,97.4,112.4,90.2,112.4,85.3L112.4,85.3z"/>
    <path style="fill:#CDB498;" d="M96,110.3V94.7h-6.3v8.1c0,1.5-0.9,2.9-2.3,3.5l-0.2,0.1C87.4,106.7,90,110.3,96,110.3z"/>
    <path style="fill:#DAC7B3;" d="M104.8,106.3l-0.2-0.1c-1.4-0.6-2.3-2-2.3-3.5v-8.1H96v15.6C102,110.3,104.6,106.7,104.8,106.3z"/>
    <path style="fill:#BDAE9D;" d="M102.3,96.4v-1.7H96v10.6C98.5,103.6,100.8,100.9,102.3,96.4z"/>
    <path style="fill:#B29D86;" d="M89.7,94.7v8.1c0,1.5-0.9,2.9-2.3,3.5l-0.2,0.1c0.4,0.5,0.8,1,1.3,1.4c2.4-0.1,4.7-0.8,6.8-1.9
        c0.2-0.1,0.5-0.3,0.8-0.5V94.7H89.7z"/>
    <path style="fill:#DAC7B3;" d="M106.1,84.2c0,0-0.2-10.6-10-10.6s-10.1,7.3-10.2,9.1c0,0-0.7,14.7,6.3,18.8l0,0
        c3.6,2.1,7.5,0.2,8,0C107.1,97.6,106.1,84.2,106.1,84.2z"/>
    <path style="fill:#CDB498;" d="M95.7,95.5c0.4-0.6,0.5-1.3,0.3-1.9c-0.6-0.9-1.7-0.2-1.9-1.6c-0.1-0.5,0.8-2.1,1.1-3.4
        c0.2-0.9,0.3-1.9,0.2-2.9c-0.4-1.6-1.7-2.8-3.3-3.2c-2.6-0.6-5.1,1.3-6.1,2.4l0,0c-1.4,0.2-2.3,1.5-2.1,2.9l0.4,2.7
        c0.2,1.6,1.4,2.9,3,3.2c0.9,3.2,2.4,6.2,5.1,7.7l0,0c1.2,0.7,2.5,1,3.9,1c0.2-1,0.2-2-0.1-3c0-0.1-0.1-0.2-0.1-0.3
        c-0.3-0.7-0.1-1.6,0.5-2.1C96.9,95.9,95.1,96.8,95.7,95.5z"/>
    <path d="M106.1,78.7v-6.3H90.9v2.1c0,5.8,4.7,10.6,10.5,10.6h2.1c1.4,0,2.5,1.1,2.5,2.5v6.3h5.1V78.7H106.1z"/>
    <path style="fill:#4F6C7D;" d="M127.2,138l-3.6-18.5c-0.7-3.4-2.9-6.3-6.1-7.7l-12.7-5.5l-0.2-0.1c-0.4-0.2-0.7-0.4-1-0.7v2.1
        c-0.6,0.5-1.3,1-2,1.3l-3.1,27.9v1.1H127.2z"/>
    <path style="fill:#324B5C;" d="M93.5,138v-1.1L90.4,109c-0.7-0.4-1.4-0.8-2-1.3v-2.1c-0.3,0.3-0.6,0.5-1,0.7l-0.2,0.1l-12.7,5.5
        c-3.2,1.4-5.5,4.3-6.1,7.7L64.8,138H93.5z"/>
    <polygon style="fill:#FFFFFF;" points="109.9,117.9 106.1,117.9 98.5,136.9 102.3,102.7   "/>
    <polygon style="fill:#FFFFFF;" points="82.1,117.9 85.9,117.9 93.5,136.9 89.7,102.7  "/>
</g>
<g id="tick">
    <circle style="fill:#F29111;" cx="135" cy="57" r="24"/>
    <path style="fill:#FFFFFF;" d="M127.6,62.9l-4.9-4.9c-0.8-0.8-0.8-2,0-2.8c0,0,0,0,0,0l1.4-1.4c0.8-0.8,2-0.8,2.8,0c0,0,0,0,0,0
        l4.9,4.9l11.3-11.3c0.8-0.8,2-0.8,2.8,0c0,0,0,0,0,0l1.4,1.4c0.8,0.8,0.8,2,0,2.8c0,0,0,0,0,0l-11.3,11.3l-4.2,4.2L127.6,62.9z"/>
</g>
</svg>