<?xml version="1.0" encoding="utf-8"?>
<!-- Generator: Adobe Illustrator 22.0.0, SVG Export Plug-In . SVG Version: 6.00 Build 0)  -->
<svg version="1.1" id="Icons_White" xmlns="http://www.w3.org/2000/svg" xmlns:xlink="http://www.w3.org/1999/xlink" x="0px"
	 y="0px" viewBox="0 0 186 192" style="enable-background:new 0 0 186 192;" xml:space="preserve">
<polygon style="display:none;fill:#FFFFFF;" points="174,162 174,132 154.5,132 154.5,111 166.5,111 166.5,81 154.5,81 154.5,51 
	96,51 96,30 108,30 108,0 78,0 78,30 90,30 90,51 31.5,51 31.5,81 19.5,81 19.5,111 31.5,111 31.5,132 12,132 12,162 0,162 0,192 
	30,192 30,162 18,162 18,138 51,138 51,162 39,162 39,192 69,192 69,162 57,162 57,132 37.5,132 37.5,111 49.5,111 49.5,81 37.5,81 
	37.5,57 90,57 90,81 78,81 78,111 90,111 90,162 78,162 78,192 108,192 108,162 96,162 96,111 108,111 108,81 96,81 96,57 148.5,57 
	148.5,81 136.5,81 136.5,111 148.5,111 148.5,132 129,132 129,162 117,162 117,192 147,192 147,162 135,162 135,138 168,138 
	168,162 156,162 156,192 186,192 186,162 "/>
<rect id="box3_x5F_5" x="156" y="162" style="fill:#FFFFFF;" width="30" height="30"/>
<rect id="box3_x5F_4" x="117" y="162" style="fill:#FFFFFF;" width="30" height="30"/>
<rect id="box3_x5F_3" x="78" y="162" style="fill:#FFFFFF;" width="30" height="30"/>
<rect id="box3_x5F_2" x="39" y="162" style="fill:#FFFFFF;" width="30" height="30"/>
<rect id="box3_x5F_1" y="162" style="fill:#FFFFFF;" width="30" height="30"/>
<g id="lines2_x5F_3">
	<polyline id="line2_x5F_3_x5F_right" style="fill:none;stroke:#FFFFFF;stroke-width:6;stroke-miterlimit:10;" points="151.3,134.9 
		170.7,134.9 170.7,162.1 	"/>
	<polyline id="line2_x5F_3_x5F_left" style="fill:none;stroke:#FFFFFF;stroke-width:6;stroke-miterlimit:10;" points="151.3,134.9 
		131.9,134.9 131.9,162.1 	"/>
	
		<line id="line2_x5F_3_x5F_1" style="fill:none;stroke:#FFFFFF;stroke-width:6;stroke-miterlimit:10;" x1="151.3" y1="111" x2="151.3" y2="134.9"/>
</g>
<line id="line2_x5F_2_x5F_1" style="fill:none;stroke:#FFFFFF;stroke-width:6;stroke-miterlimit:10;" x1="93" y1="111" x2="93" y2="162"/>
<g id="lines2_x5F_1">
	<polyline id="line2_x5F_1_x5F_right" style="fill:none;stroke:#FFFFFF;stroke-width:6;stroke-miterlimit:10;" points="34.3,134.9 
		53.7,134.9 53.7,162.1 	"/>
	<polyline id="line2_x5F_1_x5F_left" style="fill:none;stroke:#FFFFFF;stroke-width:6;stroke-miterlimit:10;" points="34.2,134.9 
		14.8,134.9 14.8,162.1 	"/>
	
		<line id="line2_x5F_1_x5F_1" style="fill:none;stroke:#FFFFFF;stroke-width:6;stroke-miterlimit:10;" x1="34.2" y1="111" x2="34.2" y2="134.9"/>
</g>
<rect id="box2_x5F_3" x="136.5" y="81" style="fill:#FFFFFF;" width="30" height="30"/>
<rect id="box2_x5F_2" x="78" y="81" style="fill:#FFFFFF;" width="30" height="30"/>
<rect id="box2_x5F_1" x="19.5" y="81" style="fill:#FFFFFF;" width="30" height="30"/>
<polyline id="line1_x5F_right" style="fill:none;stroke:#FFFFFF;stroke-width:6;stroke-miterlimit:10;" points="93,53.9 151.7,53.9 
	151.7,81.1 "/>
<line id="line1_x5F_mid" style="fill:none;stroke:#FFFFFF;stroke-width:6;stroke-miterlimit:10;" x1="93" y1="53.9" x2="93" y2="81.1"/>
<polyline id="line1_x5F_left" style="fill:none;stroke:#FFFFFF;stroke-width:6;stroke-miterlimit:10;" points="93,53.9 34.2,53.9 
	34.2,81.1 "/>
<line id="line1_x5F_1" style="fill:none;stroke:#FFFFFF;stroke-width:6;stroke-miterlimit:10;" x1="93" y1="30" x2="93" y2="53.9"/>
<rect id="box1_x5F_1" x="78" style="fill:#FFFFFF;" width="30" height="30"/>
</svg>
