<?xml version="1.0" encoding="utf-8"?>
<!-- Generator: Adobe Illustrator 21.1.0, SVG Export Plug-In . SVG Version: 6.00 Build 0)  -->
<svg version="1.1" id="Icons" xmlns="http://www.w3.org/2000/svg" xmlns:xlink="http://www.w3.org/1999/xlink" x="0px" y="0px"
     viewBox="0 0 192 192" style="enable-background:new 0 0 192 192;" xml:space="preserve">
<g id="piechart">
    <path style="fill:#324B5C;" d="M16.2,70.8h16.2c0-2.8-0.7-5.6-2.2-8.1L16.2,70.8L16.2,70.8z"/>
    <path style="fill:#F29111;" d="M27.1,51.9c-2.5-1.4-5.2-2.2-8.1-2.2V66l14-8.1C31.6,55.4,29.5,53.4,27.1,51.9z"/>
    <path style="fill:#F80000;" d="M16.2,70.8l-8.1,14c7.7,4.5,17.6,1.8,22.1-5.9c1.4-2.5,2.2-5.2,2.2-8.1H16.2z"/>
    <path style="fill:#8AADBF;" d="M8.1,56.8c-2.5,1.4-4.5,3.5-5.9,5.9l14,8.1V54.6C13.3,54.6,10.5,55.4,8.1,56.8z"/>
    <path style="fill:#942645;" d="M2.2,62.7c-4.5,7.7-1.8,17.6,5.9,22.1l8.1-14L2.2,62.7z"/>
</g>
<g id="cols">
    <rect x="33" y="23.1" style="fill:#F80000;" width="4.3" height="12.9"/>
    <rect x="41.6" y="14.6" style="fill:#F80000;" width="4.3" height="21.4"/>
    <rect x="58.7" y="10.3" style="fill:#F80000;" width="4.3" height="25.7"/>
    <rect x="50.1" y="6" style="fill:#F80000;" width="4.3" height="30"/>
</g>
<g id="doc">
    <rect id="bg" x="120" y="0" style="fill:#DEE0E0;" width="30" height="30"/>
    <rect x="124.3" y="4.3" style="fill:#4F6C7D;" width="21.4" height="4.3"/>
    <rect x="124.3" y="12.9" style="fill:#4F6C7D;" width="21.4" height="4.3"/>
    <rect x="124.3" y="21.4" style="fill:#4F6C7D;" width="12.9" height="4.3"/>
</g>
<g id="graph_1_">
    <rect x="162" y="48" style="fill:#FFFFFF;" width="30" height="30"/>
    <polygon style="fill:#00758F;" points="174.9,53.5 179.1,57.8 189,48 162,48 162,66.4     "/>
    <polygon style="fill:#942645;" points="179.1,63.9 174.9,59.6 162,72.5 162,78 192,78 192,51  "/>
</g>
<g id="man">
    <path style="fill:#4F6C7D;" d="M172.8,166.2c-1.1-8.3-6.3-15.5-13.8-19.1L116,126H96v66h80.2L172.8,166.2z"/>
    <path style="fill:#324B5C;" d="M96,126H76l-43,21.1c-7.5,3.7-12.7,10.9-13.8,19.1L15.8,192H96V126z"/>
    <polygon style="fill:#CBCECE;" points="116,126 96,132 76,126 89.7,192 102.3,192     "/>
    <path style="fill:#DAC7B3;" d="M116,126c-1.3-1.6-2-3.6-2-5.7V105H96v27L116,126z"/>
    <path style="fill:#CDB498;" d="M76,126l20,6v-27H78v15.3C78,122.4,77.3,124.4,76,126z"/>
    <path style="fill:#B29D86;" d="M78,120.3c0,3.5-2,6.6-5.2,8.1l0,0c0.2,0.2,3.5,3.9,11.3,6.1c4.2-0.6,8.2-2,11.9-4.1V105H78V120.3z"
        />
    <path style="fill:#BDAE9D;" d="M112.8,108.1l0.9-3.1H96v25.4l0,0c0.6-0.4,1.2-0.7,1.8-1.1C103.8,125.3,109.2,118.8,112.8,108.1z"/>
    <path d="M69.7,81.5l-0.8,1.8h54.2l-0.8-1.8c0,0,2.6-10.9,2.6-19.7c-0.1-10.7-9.8-21.8-22.5-23.1L98.1,33c-31.1,1.5-31,26.9-31,26.9
        V63C67.4,69.2,68.3,75.4,69.7,81.5z"/>
    <path style="fill:#DAC7B3;" d="M120.1,78h-1.2v-8.3c0,0,0.3-8.7-3.6-10.4c-0.9-0.4-2-0.7-3-0.6c-4-0.1-7.9,3.4-16.3,3.2
        c-8.4,0.2-12.3-3.3-16.3-3.2c-1,0-2.1,0.2-3,0.6c-3.8,1.8-3.6,10.4-3.6,10.4v29.4c3.1,22.1,19.8,23.1,22.4,23.1h0.8
        c2.6,0,19.4-1,22.4-23.1V99c3,0,5.5-2.2,5.9-5.1l1.3-9c0.5-3.3-1.8-6.3-5.1-6.8C120.6,78,120.3,78,120.1,78z"/>
    <path style="fill:#CDB498;" d="M95.9,104c1.1-2.1,1.1-4,0.8-4.6c-1.4-2.1-4-0.5-4.6-3.7c-0.2-1.2,1.8-5,2.5-8.1
        c0.6-2.2,0.7-4.5,0.4-6.7c-0.9-4.2-4.8-6.8-7.9-7.5c-6.4-1.3-11.5,1-13.9,3.6v1h-1.1c-3.3,0-6,2.7-6,6c0,0.3,0,0.6,0.1,0.9l1.3,9
        c0.4,2.9,2.8,5.1,5.8,5.1v0.1c3.1,22.1,19.8,23.1,22.4,23.1h0.7c0.7-2.9,0.7-5.9-0.1-8.8c-0.1-0.3-0.1-0.5-0.2-0.8
        c-1.1-3.3,0.8-4.3,1.2-5.1C98.7,105,94.3,107.1,95.9,104z"/>
    <polygon style="fill:#F80000;" points="108,192 99,149.6 105,132 87,132 93,150 84,192    "/>
    <path style="fill:#FFFFFF;" d="M120.5,129.1l-1.3-0.6c-1.2-0.6-2.3-1.4-3.1-2.4l-20,6l9,15.6L120.5,129.1z"/>
    <path style="fill:#FFFFFF;" d="M72.9,128.4l-1.3,0.6L87,147.6l9-15.6l-20-6C75.1,127,74.1,127.9,72.9,128.4z"/>
    <polygon style="fill:#324B5C;" points="128.9,162 122.9,153 128.9,147 125.3,130.6 116,126 102.3,192 112.5,192    "/>
    <polygon style="fill:#283C4A;" points="76,126 66.7,130.6 63.1,147 69.1,153 63.1,162 79.5,192 89.7,192   "/>
</g>
<g id="VR_1_">
    <path id="VR" style="fill:#939699;" d="M120.8,101.3H69.3c-6.6,0-12-5.4-12-12v-7c0-6.6,5.4-12,12-12h51.5c6.6,0,12,5.4,12,12v7
        C132.8,95.9,127.4,101.3,120.8,101.3z"/>
    <path id="gloss2" style="opacity:0.1;fill:#FFFFFF;enable-background:new    ;" d="M57.3,82.3v7c0,3.1,1.2,6,3.2,8.1l41.7-27
        c-0.6-0.1-1.3-0.2-2-0.2h-31C62.7,70.3,57.3,75.7,57.3,82.3z"/>
</g>
</svg>
